<mxfile host="Electron" modified="2024-04-02T20:33:38.953Z" agent="Mozilla/5.0 (Windows NT 10.0; Win64; x64) AppleWebKit/537.36 (KHTML, like Gecko) draw.io/24.1.0 Chrome/120.0.6099.109 Electron/28.1.0 Safari/537.36" etag="qYan_DDMmDPlTP6nnWoq" version="24.1.0" type="device">
  <diagram name="Page-1" id="EmwzgHjXN4L9OG_YRLbm">
    <mxGraphModel dx="1405" dy="981" grid="1" gridSize="10" guides="1" tooltips="1" connect="1" arrows="1" fold="1" page="1" pageScale="1" pageWidth="1100" pageHeight="1700" math="0" shadow="0">
      <root>
        <mxCell id="0" />
        <mxCell id="1" parent="0" />
        <mxCell id="kKCmZU7g9CsREEnNZsZf-8" value="" style="rounded=1;whiteSpace=wrap;html=1;fontSize=22;fontStyle=0" parent="1" vertex="1">
          <mxGeometry x="314" y="430" width="467" height="120" as="geometry" />
        </mxCell>
        <mxCell id="bC7OHCeX101TMUWNberd-2" value="ace-demo-pipeline" style="dashed=0;outlineConnect=0;html=1;align=center;labelPosition=center;verticalLabelPosition=bottom;verticalAlign=top;shape=mxgraph.weblogos.github;fontSize=18;fontStyle=0" parent="1" vertex="1">
          <mxGeometry x="37" y="379" width="75" height="75" as="geometry" />
        </mxCell>
        <mxCell id="bC7OHCeX101TMUWNberd-3" value="ACEaaS" style="ellipse;shape=cloud;whiteSpace=wrap;html=1;fontSize=21;fontStyle=0" parent="1" vertex="1">
          <mxGeometry x="922" y="462" width="170" height="110" as="geometry" />
        </mxCell>
        <mxCell id="kKCmZU7g9CsREEnNZsZf-9" value="Build" style="rounded=0;whiteSpace=wrap;html=1;fontSize=22;fillColor=#f5f5f5;fontColor=#333333;strokeColor=#666666;fontStyle=0" parent="1" vertex="1">
          <mxGeometry x="326" y="460" width="90" height="60" as="geometry" />
        </mxCell>
        <mxCell id="kKCmZU7g9CsREEnNZsZf-10" value="Unit Test" style="rounded=0;whiteSpace=wrap;html=1;fontSize=22;fillColor=#f5f5f5;fontColor=#333333;strokeColor=#666666;fontStyle=0" parent="1" vertex="1">
          <mxGeometry x="426" y="460" width="90" height="60" as="geometry" />
        </mxCell>
        <mxCell id="kKCmZU7g9CsREEnNZsZf-11" value="Component &lt;br style=&quot;font-size: 22px;&quot;&gt;Test" style="rounded=0;whiteSpace=wrap;html=1;fontSize=22;fillColor=#f5f5f5;fontColor=#333333;strokeColor=#666666;fontStyle=0" parent="1" vertex="1">
          <mxGeometry x="525" y="460" width="135" height="60" as="geometry" />
        </mxCell>
        <mxCell id="4X8OJqOi4j79PQFWo-uC-5" value="Image Registry" style="strokeWidth=2;html=1;shape=mxgraph.flowchart.database;whiteSpace=wrap;spacingTop=13;fontSize=18;fontStyle=0" parent="1" vertex="1">
          <mxGeometry x="815" y="235.75" width="80" height="82.5" as="geometry" />
        </mxCell>
        <mxCell id="4X8OJqOi4j79PQFWo-uC-6" value="Deploy" style="rounded=0;whiteSpace=wrap;html=1;fontSize=22;fillColor=#f5f5f5;fontColor=#333333;strokeColor=#666666;fontStyle=0" parent="1" vertex="1">
          <mxGeometry x="667" y="461" width="90" height="60" as="geometry" />
        </mxCell>
        <mxCell id="4X8OJqOi4j79PQFWo-uC-7" value="" style="shape=image;html=1;verticalLabelPosition=bottom;verticalAlign=top;imageAspect=1;aspect=fixed;image=data:image/png,iVBORw0KGgoAAAANSUhEUgAAAMgAAADICAYAAACtWK6eAABzmUlEQVR4nOx9B1xTV/v/CSG5IZMVCHsFkI0TJ27FPatWbbVu+9a2Wm3tsFpbu2ytb62t2qGt29Y6WvdCFBUUZe+9EyCQRZKbkPv/BAjc3NwsCCi///v9cD8kufee85xzn+8943nOc2wRBAH/w//wP+DDtrsJyKUw1Nwo89F8pDrY1VBoZKV1RPsf+hJUFdU0tULhAgAg2Hpwymzs7Fqet0zWQJcIIm2UsfPul2wufVa1SNEMe+NcImey6TkQjVzHdKEVsdj0dKYLPZ3t55hiS7ZVdF/s/6G30VJX76oqKhnQUlkdrqqsDlJVVoe3iMSslrqGEE0nRNMPQQCh/T8ARHdOlt3wIX8yZ0zeS2QxhM9b/q6CYGkXq+Rp1ezH5zJ+b1G2MI1f2VZr2iojIG3Vx3ShP+EEudxm+znFuwa73rIl28LdK8L/0BNQ19Wzlc/SxymfpU1VFZWOVNU1+IN25Ve3XtH+ZBHd7+r2+1uftub5M+k89sZ1L1EHRNx7fqXpOiwiSMnTqrmPzqSeNX0lPjnaM0T/LnUNdr3hEeFx3GuA92Vbsm1zdwrzP3QP6rp6Dnw3cbHy0ePZLcUlo1oVHmlTdoBDDnV7y4EmR8f3jlal9f5mt+3vxPVFkphNEE236tKeu0UtyhaG8SsNkUPzue331u/tv7dWPYIAW5KN2D3C40/foQG/OAW4PLRK6awARYPQTVrGC4EFwkB5TUM43CB0VImbgxEFbCOvrQ8iIAjNAPnFFDfnQhsySU12YuXYMqhNkJtzBuTOLoDc2LkkZ4ea5122VigUJMWjJ3PgG7dXtGTnTtb+rG5vHbTkQCt/5znUdww5dFoSAIANk17l/cMXQbYsRp96CZpNkOS/M/YUJZdvNH6VpeTovL7zdwAYLoxUn2Hc/3oP457ozS5Yi0JJEhdWjhIVVI0UF1TENJfVDlbDSraRFtDC30GHytiQbHnUYN/Hdr4eSXbBfol2wX4JNhC51wa2apHYWXb24n+UdxP/g4hEbK28AEMOBKP8aHLontdtNfRaFQQAx6XzNjovmLG3t8poDZhNkLM7b1TDzbCb4Ss6FdxiciDaKgY615BpED9wQtgXHoP8D5HplB558ygaRB51yTnzRAVVccKsknEAIJAxBTfUAppDDmMvDgAQGS0i+LZdsN8V+ogB50jOjtU9UV5VZbWP/OzFd+GEB68RAGIHUPJ2KLseOQhGzuGTQ6dVQdq+kz05D/x//GJET5Srp2AWQYQ8SdDl7+7mGb6ikxxo5elUBmAeOZDOx4FuUYgkm3ruxMhdvmNCDxGtME5RimVOtfczljQ8K1jUXM4fZomCm24Bu0AOdHrt90J+Hgn0EYNOaQ4ik97Y3TKrKqvdZWf/+RhOSFxJAMAWK28nAXCU3wJy6J1HpadB4NHvWbYshqi75ektmEWQ3Hsla59dyj6AfxYBAYO9D7QoVTblzyrW4HWZTJNDt/thiDRkGlQbMDHyQ5+x4b91pbCNWWWjau9n/KfhWeFcAkBIlim4Wqe1MHQvfosCzCMHbn0BOXVw5F+MuDE/UUK4Dywts1okZjaf/edj+aVr6wkIQtWX0TrkABC5iTVj8jfSZ5mz5UWlgwyl57n19TjW8EHXuvL8ngfMsoMIqoRD8c+0PcjgkX67WK6MSm6Mz8Gkk0/+kDU2hxlpFdQEAGwsJYfms1Ii4+SdS/q1MjH37eC5MRucQ73umpK9BVYS6p8VLa64+niLvFYQ1TUFR8wkB/6YSr9VNZscACBqiiw5dak8+dlSkrtrEnP25L3UUTGnzHlusn+vrZOeOPspAVY445UDmEOOtiK1IIBANEQOSv+Is86vL19PcnGuAxAkl2kIYiA9WVFZTF8iCHHHjh0mL0q7lrcTboZddX9tUx4KlVwZPS30E80vNAdqjX+M7+HmxmaGqFYUg1VwzWcHT4d7YdOjNgOAiOSNUm/QoqaC9rezuaRRSmWuvCcFyyVVDf2Yfi6JJDtIgid35e3UV3IOXj5dl5y7pkUi4xAsVPAuk0NH3s6JUQK6RTGPHB2/a+5Ti8We8sep8+UPniwkUClNJB/PDLxyK7PzBos+23NZce/hSkKLiopPfuPksGE75VOnTtxvN2nsPriodJi6WWaPJQeAyFLHZQtfc1736jYijdrcnqZSeDNxjSGy2UCQyGHsMLMI/iLAZBdLBbeAPz++irmoUwncAtlnR68aNh97X/Gj4pczLqT93KJU0bAK7uTnHD907ZgpmmdZl1s9tfxhwar6nOqZaHKg3+DGSEMk2Yp9J/d/3zdu4H5t3rzkvCkVVx9/I6sRhOK3Rp3pmFT89vohkm2bKG5OBWRHVqYtw05E9XHPbk+bJ0rJXi7JKJitud5p0rAvITd2MgCAjcCwDVzFD2kRS+1VDY1hipKKfgQAaGhZ8JQXSxpDraqtOyeNuWzBW1B0eGtLqhaJ6ZIjJ79WJDxcb4zAwNAYASILodEjj1FGDz9MDu2XouLXe9d/uCtBVdfggyUHke1U6rJ1wxSI65eLfu5quYKQv2AdjABgi9MSARLbqTDkt92BXVfZ3oXJLpaIL4nQ+QHdVWhtEVipePf5D/U/yXRhlD/4OeFcC6xioxVTUMIfk3TwzsmYtWPnukV6/6M5JLVCz/KH+W9XPshbqYZV9gb77BiFQWAlo+SfpB94SbnrvcZHf8FPzl0iKqyeYpxYxsdAAEFgRqDXPZoP5wE90CuZ4ub8jOLuXGWojuSlVVO16UFu7BKHsUPOGboWruJ5K0oq+ytKK2Lgksqh8tzCUa2DZj3SmB6ntVRVRzV9vjeeHBX6N2XIgIvSk39/DkRid2PjJYBDDgLbKZc6I+57yugRv9swma0tAZYcHe0gAgAUGpTgvHHtHJKLswBbPhsKhEABPg9kRWWxWHJovivqBFy1XGFjQ4HUpnTvRYBJggj5koC2TwZcR9iMHEP3OvuzE2NfHxuTdCTxjrxR6oN+uIJi3uzsc08ORC4culZzLZ3DqgydM3gzd2LEjtL4rDWViXlbVVIZG48caNJo05TzmsIKTtw5ZlCp0ANwvWsQYEu3q3IYEPQXK8z/GjPM/xYRIllgf+lMzxTIHq7lmoMxcuAFzfcWkcROnlc0rjk5bbo8PWc2IhJzTLV6el3O1My5qtSMuYZaGjxyqBECIHq6P7ObP/MryuiRp9EytghF9PoPd13DIwc5NOiO6/bN020okMHZRArX70FzUXkslhzavOWVNZFUri/ui/VFg0mCKKSwiyFyaMBypZcau9/ey7Fk1H/GxSb+cDNB1iT1QSt4xcOCNRANKg6e3v8r7fVkOkUSNH3gnoBJUQcK/n3yelVi7ocIrDTcohhVfKBPjvZ+fWv3jGwrcogOPOk8NOw4K9y/624QaOW18FYiky6jDY66pDkAAOtladkTpLfuL1GkZr+EwApaZzmMjNN0WnX8a0AHMQCw8fTIoc+f+TFl9Mi/sPKo5QqS4KvvL6nqGvrpWM/bWo7rnO2bZ9lQILmxMkEBPlmGyKE5FPwGDpXra2FNPR+Y7mLViUPxydFW+VR7aqapNKiOtPIRb0yIjf/y3/tqpdILreBFN9O/pLsyczwGB1xE30Mk2zb3mzv0G/9JUb8W/fPk4+rE7NcJACHjzwIBw+MVnClXO45Dlkts1F6nmLATJAa123YVAubN3h3YRYXe1BwtIslbsntJr0ov33qjpb4+2CxyoKeUUd1J0N4KEBgMPnX+rA/sJo37FUAQbv5NPx3+Xp6dH4vokyOBs33zbFPkAK2tJKdCSw41yo8LaU9LJZLgeYC/kLAxdQEBAXaGyKH5DNEhs9zXNSSJWTtmFpFElGK7TFmnH5wQVtTjDtzIdLvGkJdHbRz60YIo+wDO1Q4ZdPrXar0uE57y2HEcEwNWTJ0auXNVOGfC4F+sQY7WOtKxm1gHRCZdRJ82/gfX/Z/3c3hjxSJbd9dUc8jRMVOmSw4Ymh63m7Xva3+7GVMMkkN88eoq6d0H6zoH420KTfJ0S+Rs3zzFhgLJzJHd1tE+Dem0HHUQRd0ukoLfQLNGHfUGTBJE2thMM0gOKrnQksycAlyfDXotdhoBICp0mmpYSUv95daFFlhFNXQvjeOQO2Dj7Ckhy8bPJdGgSkOzPR2DcJS8VI5jJnfF1ClRO1eOdB4adsUSmbEo33fi56zlH0qqDp7p9ClCsJ0IANQK2Kb6q5+PFy3dJKo/en53d/K0GzX0NPu7T/uz3li5iOjkmGOMHNhpXBt/v7vM3Z9F01a88q4Nkyk1lIciK7d/028n/oueqdJ8JrKdyly3b15gbMyBBcWD09TprNhGDi1fNb8rRdI+M4tlkiBws8IfzxFPc1Ad7CxeCMMO8bgbMnvQm7otAQCKRklIxh/x+03dzxkSfM4p1PsEASMLnhWcSLat931pzJqoT1ZEOA8Nu2qprFiIM/KHilOyVhEQQBM9SH1LVlIV1XYG9eJoV4Tm9LwZsoycxQAAhujq3c1wVW1wd/O3ix122mnvZxH0RXM2EsgksSlyaA7K/Fmf2Ab4GZxIAW3jDmrD3oN/anrMaHIAiCxlb1w7jeTi3CW/MDWKHEiH42Jrq0LsUgU8B5jRxULI6D423sOwFH5jQn9yH+T/K1bB69JKltckF8wzdF8LrLTL+OHicX5y7rvYGRtdGRHgGM090v/z1UFuEwb93CUhcWDLoNWgXhYqWwa11UeqTQagUx9EBrUatLdoNmSSlACR9aZEuwICBLVQ583Y6/DfzwPJUeHn8F4Q6Glc0Vf/vSn758oaY2kK9h44qKprCECTQ3M4r3/tFbuw4KyuyKnGtETYwXpfgVmuJoa8bbvT5w5fOHyDpLxugJTX1B89fsg9de9Xey4nyc6RUYm+XimRUbMOXbkiKqyKNTadSaJTqvyXTFztNCCwW10pPNj5epR5blgyXZqRP5MeEfgXydmhXHtOWy8d1/YLeMx5+7W5svScOOqgyF9Jzo511pSFyHbmMbdtmau4fnuu7PCxn4FC4QjwDYA24t+OH1RWVvsz16/cik1HGp84u/lRylKsMjNnTP6aMXa4QXuOKRgjR18iiOkWBDt9iLYwd6OkRLKtLGrl+Jc0g3b04FMNw6zMn6/rvPXlArHr0y/PxOuSQ3/Wyj7U59/ID5ZG9QQ5tGAOCrvk9tqctYxB4Tc6f8V/adAGR55zXrlwLTUqJLmn5IEmjfub+f3XUUR/v3gccnQ8vebr8e8Jf/z1IPpeFb/eWfDT4UNYZSZ5uj92XDrvo+7IZZAcfYwhJgkCEESKZ1gD3WxBQKtx0L6IO23g651pts17SMr5cRW301aCdnKk7fn7tkIgGmxompNIspX6zI9dFfrWvBmQE7OhW0J1ATqu8M8BNmznSsaubWOh6XFfGnM6lF6PX9P4428dJGn87cR+tULJ1lnLAUFS160bFtpQoG5FpzFEjudXS12DyS4Wzd6uSFjZGIsepGuLKawQeHRXAJ9xEX8IcirmCHLKZ6O7TCUXH33L9GbfyT1y46xCIAo1RA7IkVEavG7mZLqPa353ZekqrGkH6TIgCFBXvPK+jadHuuS3Yz8jCpiG5+qhIUnr4L1/5MXmRykLsG96pyXz3iJ7uZd0Vxxj5EAAMGlLeVFgsgWB6JBSuz5MdzCsOYtwrCFEv5dHrSGSbBvQJEBgJSt1z98ZCoEo2hA56N4u98M3L4zpbXLISyr76f5imBxwcXlQ70kGAGXSuJPMj9+NQyCoXquYaoyyiq/Hr6n7at+ZznNt5+36h1+2nzX51+7KICks9TFCDgCxnQqsU9qeh0mCEEk2fGBkdV2zQOrSXSHsHBl1QfOGb9C3ZaiphgyATK5HQtjmhZMhJya/u/mbC7UCppa+u/txxcd7c8re/fqeWgGTO89qJzHa0CKSMKo2bMup/fCrPP6OPbd7S0YNyKH97jvu+mgIwdmpDBuSR/tdjQAqOrACgMhSp5WL11kjf7VM4as7HiLotFK2LHqfCfVkkiBMV2aFMa9aWaPExxqCuI8MPckKcLtG6JgQUOuuxEMZAJlcj+shb86dTIRIvRohQ5qeF6Ws4Q3S1IGqunaksprX6ums08Vql1P2OHVGS72gn6YMcG7hWLi4vH9vykoK8Ctx2vVRLJHtXKbGRiVBza+o29ePO8yf8RHk5V5hjbxFGXnRSLtDJHo8pG7XHIjtmG2NfHoDprtYVFIB1saA7m5JeKIIawkTtHi0phWRYRcKEVCzaEyux52QN+fOIkKkXu/HUvw8C21IJGmrEwWZ1GTr5NDhqIm1g0D9uA9b7R8IAmwYtAqis0Ovj5FsXZzLnXd9GEtkO5WhXUc6iNIuMcnTLd1+5iSrRRtpruSFaMgBAEC1XO3fEQDILIZVp7x7EiYH6QwXZokhO4jmN1FFQzgA1vEcUElkNCLJVq2GlTj+VgAwue4JIW/Onf48yKEBydmhzuvTt6PkecXjKcH+V4lMetuMGaI7Hd56rQenxPXzrYPgnIJYKCr0PJHJMOjm0ZPQkMTpvTfH8j78PEkth9l4Ngm1HCYBAKga3bZGnpLCsuEA6I5vQGegOTUj0MdIAJAXCyZbEAaHVQoAItWzg7S/3YUV9VbpOsASGTXv8PWzahim4ZEDcmQUBq6YOq23u1VYkD1ci5jjhh0ie7jqGglxBuokD04ubcKoQ7Zsp14bJ+EB4vqVuHy8eY5mnIElh6ZVgesEIdV7Dh20Rl5KoZglq+JHqDEzWdqWi+rplm6NfHoLpu0gAAB7T4eneoPldrcTcWXDsBZYZekyCD0UHr/9s0Ig8se6jmj+iGRiQ/jmheMhJybu2vPnD8Tq3rzWBiUsONFpxZLlWHJoP4sePV0quBpv0M3HXAgzC0Z0zpoRMLNYBED14qRZp0S9A7MI4uTHTtI3Ena0KJCgqHZkd4SouZc5vyG1cDHemgcCQNRBa2fOg5yY5d3JoydBQAdreHE5AphxY/5izZj0mSFre+2vpw7B/PpuTd0LswpHGZviZYVzn1ivRD0Ps3yx7D0dHuK5dmg/NxbxxrNDPLu0Ik/eIGIX/5VwEJumdtbKY0rMhw7hfibD+/Q0WkQSuqqhMVhZVctBFLCHWiwhttQLAgECaIrcwlHaupHdT1qiKi4dqGlcSR6cQgJEVtsw6MVEtmMj0dkpy4bJeK5GMvaqxdtkhaUxzdkFE7HWbrUcdqz64Y8Dfjs3ze5q+o0pWXGGyKE5mFyf+9YtUc/CLII4Bbjcw3mzd3Qt6tJKpwVNH2g6fhAOSv5K+C8Cw454y2OZXPer3rNHftmVdLsDWW5xf0VJxRBlNS9aUVIZraqq7YfAsL05UUeUOQWxypz8Vs8DOer3jnvJ5DqSByfP1t833TbAJ8XW3zfZNsDP5KpMa8Jt05pXSjZ98kwlkrhhre2iZ1mzBHceznEcO8xiR0U5r8FdWlkbbYgcNhDU6BAR2CfWomthFkHsHOl1dBfmUym/aQBeAAUpr3GQTCDxsnOkWzSPXv+scFxDauHLeOQgkokC7oqpK7pWLMsgL6nkNqfnzZHlFY+RpefFAoDQsYpvmhzGAyt0/K5QsFXFJeyW4pKRihsdpGkihQTfsw0NukUaOvg80dOjrCfLS3Jx5nFeX76y4sv9l7GuKJr/Vb+c2mc/bMA1SxZJacC7kzTf0Dp0zXf7MG58z5WqZ2BW4DgNFMJmj6Yi3mhDYTSJZGK9Y7CH2d2sFoWSkP/rlX9VYm3kEl0bi9/LE5axQnySul40E+Wp4vs1Xbv3du0vZw40Xor/RJZdMFHFawgEoH39i4n1JpZEHTH0ewfhVC0UpLY2WJWRHae4cuNtxa2EuWqR2MnGzbXIhkYV90T5IS/3QllJhYeiomYgglk73qJQMlsUMIE1MNwiD4CiQ2f2yAVCL4BDDk3RfedP/JoV6NOnWhCzBumgbSXgRWMxZmsfF7xqSca19zPWymoaQvHIYR/m+49LbNSfXSiPSQgTn80r/+zArdL3vy0WXLy9vaW+MbirCm6cHIY+405EtNds23Soqq4hsvmvi58J1rxd1fjhZ5dldxPjeqIuPP6z7B0bJqMWb+143dWEt2QV1WY7o4oLyoKEheXDDZFD89l5YOilnihHT8JsgjgGuKaQaeRSPGu65rNCIA6uzy4fZU5aLQoltfJK8k6As68GkWwr9VkwbkN3CoUHwbX7rxT859Pc2oOn/pLll4wz5FuGbS3MI4facHcLwQSRwEkToMiBoDas0Rxwdt4U4d4DV/hvvJvZHJ+4xJp1YstiiF1fmbMRoF1B2mfhVAqYVn368k5z06q6cm8NetsD7IpCBtf7up2rU5+xoGthNkE08BoW9HtHHxwdYqZdqSrvpP/HnHR49zLWqCQyNh7ZXEZFfmPn5mS1PrjoSeb44q17svjH//1DLZa0rgvXJ4faYMtoukUxM14Vtr4wIXnUqEEtdjcnzTllZU1Y496Dx2rfeO+Z7Gm61fbYcI4bc4oS4HMPb+14fXzScllFjcm19C1yBbX2TvJraHKgd5rS/OY1ZdRJa8ncm7CIIG6Dub/rxZJFKUFjdvlCaa0gwFgara3H1aQP8Pr1JLod33N27NfdLZQGKrHUvuL7Y8er9h2/CVfzQ7XdGH2lVeP8rj8RYbglMNANMxaSB91qGJjxQXR2cyJ0fIcra6L5O7+9z//i+19ahGK6NerKY9WijXgrANUA2FSevqS3TBeLqiv3VqoUsCOqRlpJrfUWtoEgCWdEtF6Qur4AiwhC59iXOPi73sCd1WlXgvKrKe8ZS4N3L/01zcBcd0ao7V73KUM/toYriSQ9f1Tx1u/SJSlZi3G7hIiuohrqNhIQ/FkrHWLrkQMvPcNRR/DcwRE9C7R+n176KGVl1TvbM2RZeQa2pjAfjPCgFOaAsBN6s08IAPw7yUuby2sM7izWIleQSk5f3YKWDesQ6To8+gSZRX9BvSCMwyKCaOA5ot9+/SnPzhaFn5y3zFgrUnUl+S39exFgS6OUsWOju7QxDhoNVxPXVHx75HaLROqF2yrgEttANwgY2prAvHhcBANhiXTJof/mNkUO7XdlncC36oMvbguvxnd7Otxr9aJPDeRvW3s14R1D91VdubcKFkm8sLIhqPGI15SRP3RXvucFiwniNiTwgp0DLRdfYVoPctmFh7hzx3WPsqepJM2B+vcC4D512NdEiNStddA1h8/t4J+8dBAAxNYscqAVH4cceApumDSGyAF6hByo83a8n478yv/lxJvdqTs7L7dceljgKbz8q6/eX6EZZ2Dv0fxWfPrqDiOyAccw7h2nCC7uPiZ9ARYTRAPvseG7jW0605BauFRYUDUEex//Xvp6fcVrDdVTx46NPtzVQqgVMLniuz9ONMU/3k4w2k0yruDaEKZ4A3Pj9+p7OXeJHIjF5OhIT3Dxxn9rfjhiYhdi4/B6ZfZ3+vkTQIsCdqi+cm8R9vqC3y++D4ukLsZk4y6K294dmZ43ukQQ95Ghv5NpUDEeObRVVHT85k/oe+QNIndxYeU0bJ9d899paNghIkQyK+4rHiq/P35Qkpr7cutuTphBtfkKrja5YY3hFsXQjlMWkgNP+Y2RA9FNr/H63T2Cq/FGg8QZAzM8KJnK9UnEk413J3kV+lpJeQ23/MLtTcbIQffk3HcZFNr1qPkvALpEECKZ1OITN+AT/KnQti6NrFYwoOJyUkezX3cv7TXcAS1AgOuEwV3uo9YcPveFNDN/uc5WZxYrOGIWOfBbFNTaPBzSgJ4kB8711T/+cVD4IGVSV+uTExe7H082UWH5MFFBWUcAiux9J/YhCKAaa9Ui31z8QVfleFHQJYJo4DUu+g8qxz4Tjxzark31laTPm2sa/DS/1D/KWgKwA1qAAFao30XIiVXbFRmaEp/Nb4pP3oqdRrVMwREDJDd8ry7h1AZIo0sO7PpstAJio46gjWx6C49Q5FBj0tOeq9jzy9/yimr/rtQpe2zMWYKBiCj8xGdLNdeUnbu1ojGzMM6gbAgBuMSEH3GK4Pbp1gN0hyAaBMwf+YYxG4AahmlFv10+KsqviIAFohC9qVUEAY5Dw7o0c6Wo4gfwjpw7YmjWyHwFx/sdmCCKZa4j2PXZWHLgRR1BUHYErfKr2xNBOqw32jQJOudUCphW8vn+c2q5ws7SeiVSINhl7JATeLLV3Hm8RFJe41vw+8XvjcmGACAf9N5rVveGeB7oFkEcQ33uOkf7nzQ2zdlcVjui+LdLF/EUmUi2FTgM6Gexf45aAdtU7Tt2ClG0L8/VG5gb6vqZp+Bmu44YaKUAihwIxnWkQ+FQCogXdUSrgGpUSwEQQicZOpSznY4I0Dknr6yNrPzl9Kddea5Ow/ofx5NNVifwT9n2wzWlAqYBoNuKoWULWz1noy2V0iftHlh0iyAa+M4e8S4BgNZNdAzZFOAGoW9ny9GpvIx+PjdsIJLK0jybbiethav5g7BpAmDACo7J1zg5TLQowNi9oL3EAHVV53eA6dcDzGwRQI05gE5ubQrYmQ7AnOv8DlDp8a8mvCMtLLU46ozToPBkoh2lBsHKjgDQzBcEGZPNnuuVxJ034YCleb6o6DZB7FwdKj3jBn9p0uCGM0hmRQVavChHJZI61J+9/olOV80AOQDqGoD5vadbDmy3Cq/lQHRaDqDTcuicQ9AtkH63Ro3X5WpPtPSHo99Z/FABAA7RIZcNtWo63UFd2dTha+ev70p+Lyq6TRANPKcM2UXlOKQaIgS229M+MFbbD+hn8aY2/BP/fIHAMM4aEn2nQ0vGIhY5HeLMxgGM0yHARjIEWBcM1AAcJ14VtuvSQSKdcwBzTn83J0lh+Xj+1YSXLa1n13Ex59DkMEe2wIWTdzlHcJ9ZmteLDKsQhAiRlNwVUxcSSbZSY2929KwRPdD7ti2DatEOVfKSylDxg2drdVoLxLTTod4EgtljERNOhxhyIEY8ctFTuTqzPwhBfyYKTRzUdzVmmhdLDgTg7uYEyv8491WLhQN254GhtxCEoFDjyq0rmwY0L87j4JfjujTmeZFhFYJoQPdxzfeaNbK1ecV7s2OnVOmBXhbHq+Uf/3e3HjkAZmbM2FgEV8ENd5kMkQNrAMT3yCUABMcjV+e8Ces4AnDO41jbje3m1OoBLJR48a4mrLWkrokUSG4fxo03RzYbiCyO2bZ6gS2F3C1XoRcRViOIBm4TBx11jgk5iH5rd+x1irETMMIDblmSdnNu8RBZfvFUgiHXEYNdO/T1+sTSIUq3nA6x5Oh80+spWHfIgXe9sfTa8684feUDPH8qY3AaGHrHHNmi33x5KdObY3S//L4KqxJEA9+lcW/TfFzv6a0b0VUwMT3Yx6Jdl+r/uvZux+DfQqdDgCBqkjvnGdnP6zHZzyuFyKBVYe/Vs9HokQP0tNMhbnpEJqOcEuCTQgnweUz2dEvrCjk0n2GRhF1z5d4qS+rcMTwwwRQ5AmaP2eE9fshFS9LtSzArqoklIEIkecD6ufOztx3MQhSwMwDY8QcAtEDvR5akqajiBcjziucZs47rOR0CAEjurmmMqWO/shscfYHIpOusM1EWlwXLEh6tld+8uwZRKGjo1g3bWnTJ6dDSNz0qPQCRpQ6Tx/zIGjPsJzuur85mNiqhmNn08Okc/oUb78kqa0PMd0UhgPIzV97ynDPhe3PrnRXo/QgBAEYAIOOV1Sks4HLUuvmfWPIs+xqs3oJoADmx+IgCdgBo9w/U25rqy7EoWonwTtIa81xHOsihYi2YvsXt223R9PEjT2LJoQHJ3yePuXzhJscvP4ok+fs8fFHIQQkNjPffvyuYs+rld7HkAG3ryEXOcaN/7/fdtjDOS1M/NpccSNtYxL8u8dkUc+udSCEjTK73E0NltYHIzyUgd2+iRwjSXFoToalffUVu87a183FPMTcttQIGksSU5ebMPLWTQ+64ctFU1py4b8xJ39bTvdhh53sTSP0C7+qTo3c9cimhgce9d7wzgeziXGVKbhsKhHi8OvdTnzdefc0ccmjzr7pyb6W5da8Bi+v91FBZRRW8cEvS6ouwehdLg+aymkgCzmAZtLcgdr7uZkf4lqbnxanFUhfddBDdqVhU+vavzN1AnzDyBjoNOKcgRp78dL6yqMyHyKRLSCGBD6gTYk8QoLbAaJr/9h+9M7XxrfeT1XX1YdjuFugiOdB+VdjrMb5LAArweei9451VNhSoRSu3SihmNVy7+2pzYdlApVBMpXJ9i1jDBhxlhAd1bEDjEhd7RCkUO5cfPb8bKxt6Tw5t3g1Ps6fCQjGdzGKY5QrCCvRORa4k4pZVym8MUclhG1sKWW3u8+xr6BGCyKvrA41Y1mUUd3axuWnJ0vOmGrJxYFsUu8iQC8yp437R3osoFHZN+w7vlz9+2uFqr9IQJinlNdnZf7YxN/9nCTk0uC1WLAQ1099cs0S8bVeqIXIYso7jOfZ1vA4wTodYcrSfk7lvWvOqDQXqiNsrfJAyuWzPL8fUCthZq5yirEJQe+HmVpdZE77xeGXOFiIFar3WY+G0b+ofPJshKSyPRTA2EKxsCAB29SnZE93HxZjlxUD34qRp8++Uu5N8ooraSMdA7z4VDM4S9EgXS9nQ5GNoytXO182i7bdk6TnTgAkDoHasYP/qfJ0IHILPvz+DJgeaTIhI7C3ateeqMjtvkPZ6Umi/NGjU8GPmeOSadh3BumcYdg+xnzT6IOTlXqiVo+lBytiSL378V0sOtOuI5l/NhVubS344qrMgzXf1gi1YcuDJpjkanmSbPQ5heHOysd7C6EBzgoIKk2GB+jJ6iiARwMDUKcmJZXagZmW9wF3V0OhvygCond4leXBytfdKL91cCecWTDdqHVfIaZLvDx4FCkVHPZBHD9+vVfGuuo5Y4p6h+ew4a1LHzJJKKKZV7v/jhKZ1x3Md0SpnXXzSuro7j6Zp76NzfVKx5DAkmyCrMNbcZwCx6M1EiFSLJbVWFrlQ4mluWn0RPUIQRU0dx5Bdgexkb3IA2pFOSeUASwyA4nOXW9dkqyprAiTnLn9qjusIUlffT343caE2T1L/qEcEBqOqO64j5rhnaFsGsicnDULtS95w9e5qlUjCMeY6os2/7Pfze+T8htaQPEU/n/kIQbVqxmRr5guCYaGEbO5zoHtxKgy5tUh5jb26zXVvo0fGIIgC9sBOkWqVGXJjmx01UVlV66M35apHjs58xKcu7BGfOr+TAAAdz6HQkOuIMunJQsqkcR2R/2xCgxNVj54swJ0Nwp0pMjFTZWRwTw0LfoAus+hp5ixjriPo/OV1gqDHr71fjQCCGAGAYYlsMr4ggsyimzWbaOfimIUUVA7GS6+pnGd2/N6+CKu3IPLqOg+96VKUHcSWTjWbIC0NjWF6BkBEf+yBcR2hm+c60ml9VxcVh6HzJTCZtb1BDs09EGbPPnF2wQhzyIE5ZxE5NP9lPIHZbidkFl1qKD2VQtmtHaledFi9BUFgJUfH6Iaxg5Cc7evNT6zdlgLMC6yA528FzHAdQURiLjpbApNR1BvkQNqmmNW6RSaQLCRHl2RTiCQscx8D04uTaSg9MU9gdjp9EVZvQVRiKUmfHAjQRh3RtMpmC0cm1ZlLDjxvW2wwBWN+VfCztChtvsrs3Gl6ytxDToeilIzh2nwb7jycYTE5uigb3YvDM/c5EClktaH05CIp19x0+iKs3oIoG5oC9cnR/iYHCKD4eRaZmxbUzz9JfOW2Rbs5Yb2G9bp7QJ8cmkP81X/jyUMH/9lSVx8EZ+ePxlNma5ND87/p0bNl+e99xSG5ONU2Png632JydE02mO7NsWSvcr4x4v5fhtUJQgDADu/NDoDuAiNzYBcVepnIoBUhYkmAOeTQ7W4ZCuZmwDqugO3ldxNXd1sBDb3NjaQnzi6YjGQVWN5ydFE2j7GDT0Asusjc5+DA9aowlt7/ZWu69ad59ciBdJBDq5hmCweRWxxXvfwffXLgrR3XvaYngrmZWpjUFXIYV2gCJv+uyYZWZhKTVhGyfKbRCPy4j1VvRWOnbE3lPFdL0+sr6BE7CAEYXF9hsfcndUj0NftVL6/tJIGRteM41xgjBzqYG168KqwCYjeFQZMDoFxH0AqKtpmoMS1Ba/465wi4siEYvypLZdOSwwYiNQ3etmYe1dWRb+kT1dmmTe+lAhwtfa59BT3RxTKy+AhYtAZdC/qEUYdsIHKd8NCx3wGsYJg0ABogEOh4wNqrMAqGsUAjBq3jumQAmPXh2HMITtQRbW9TR/kNyIbgWMctkU3zncJ2yBq2640ZDG+Ongu9uVC3txw4slG6muaLjh4wFOoQoltdLDSoo2LOkf28n4h+P/0DnJY5U2fwb8gxEhgOrACwToU47hmIAQVsJ4Palu2UZcNkyBEEVFG4vvwWBQwUFTWuCACeKpHYDuYLQg1ZoAHWqRDHrQUxQA4zZGsnR+u1cv/ZY78NWT7zc1sKucubE6HJgZXt/zJ6xJKuQw7dwAoWh8JEw9bTrcLxw7dnKVIzRzWf/fczZW5+rDmBFYCRMQKe6wje+IDIdiqmhAZfsRsQcY/k6Z5K4fqaNQvUXFga3lxY1l+SlR8rfJo1WSmUeCFY5e/S+EV3vIElDoIQYI9xg48GLYrb1Z1WA+iMOfBlAwD8n1041TMtiOENaxyskQMUHX4Pig4frczOGyy/cXcdnPR4AVAo6IaijiC4Cmh65smGSefTYof/Qhsz/BjE9cvpiqxUrm+m5nCOG31U811aWDqg7mrC0ro7ScvU2n39TJLD/IE9iUkv954y8lefKSN/oro6Wm1XWWPEBQD0ud1rzYX1xyCmdnOyIkihwY81h1r08gZlWuYE5cPk6ars3OlAJGp14ENMvf0MKCCByaiwnz/zE/qkMUdtKBCMzVclFDPlRaVRSn5DiLyoLAABwL6j/4+0WsfrIC+3coqXWzrF0y3VlsXoWOdB4/o+pb3h+9Rr1cKP+FcTVleeufwhLJSyLSEulhwkJr2MMyL6b9fh0ed6aj8OY60aO8iroSfyfBHQE12sOoPkQJDWwNM2kHXnzG2YjGZo1LCLmkPzXZWdG63Kzp2szM4bqTkQBWxvrgLSJo393GHF4l02FEg3yAO/ni28dne1+GHKLEVlzRDzukFt3+0CfBLshw24wI6LPUxiMRpBW9ypZrfZE//rPHbob4X7ju2uf/hsrbnkIDHpNYxA70SH8MC7nOHRV+jeHLONr11BfUFFgLGy/l+G1QkC+XmW65ID0bFeK4rLI+xCuGnWzhcN29B+qZqDAsBXmu+qopJgZVHJEGVRaX9VZXUkXFgyAFHADmgFBBBZyn7vzRl2AyLvoNNSyxUEwZ//fCL469/NCEKwM3+M0KnQ0sKyWElhWWzVmcufcGZN2On16pzd2vRJLIY45KP162quJNws/PnPI2oFTEOTw5ZJr2NwvR/RvN3SGVzvp0yu9xO6t1t5T9YfFko57GKorESIVNObsvQ2rB/2h0Gr1jXc6U65KtJzpvc0QbCwDfDL0xx2ABxVC0Us3ppN5Xrk+HhLHCWsffktCjVf7jshfZa5yBqBGtQKmF555vLXsFDiFrDhlU3ofNymxP4FsR3r0j7edxMBBFt0WlEfrV1IpEBd3qKuO1DKYULJ/YwZhspq/380YJwWVjcUkpwdaoh0agUeOTSfReevfsb74MsH4su317aIJFYZtFsC6fU7S9UKmIlWQPsVS9bjkUNeWBopfWodcqC7TrVX722U8xq8sfk5Dgq/671gynZ0WrBIyq6+nTy31yqoHfX5FeH3vjvz1cklO2trMosndbZquhMd7hF+ib0tW2+iR6Z5aYMj/pbcfviWoVA9yuLyYcLismGiP858T4kMvUwdNeQPypD+VwlQz78l5c8yZmofsLot7E8KY/LYo7jXFpUOtWzq1RQ5Oj+rRBI2cHXS6yr5Lpqyu/Lq/TcUIomb1jrOS0yd6zV11PGerhsJT+BReOvJ0txLDxeJ+E3RwIzxkM+g4Cs9LdfzRI8QhDFi0G/SWw/ewiMHxsJNVqRlzobTMmcTSCQJJTrsGhQddgoaMuC6DZNhtjOdJVBk5w9FUNZz2ujhpwxda+vsVIS2gCMGInt0nEN0r0UrFDroQ/uBa7QjUiAlZ2zM0bILt9/Vuo4IC8sHWLkaOlCfX+Ff9SRnYen99Bn1BZXDsOVqKxO+WwvEpBX5DAmxOAh5X0KPEITSLyCdEux/S5FXOF43UjpAtygwAAi5gzSwgq5ITpkHJ6XMEx/8XUXuF3iTHB2uOS7YBvgVWkOuFqGIqAaA2abHbQpNDvA12EWghgXFE5n0EpVI6mdN1xE7T7c0RqCPQbsKzZuTj6AioihEUl9rlF8DlRwm8TKKxlQ9yRlflpg+V8xrCkTLhpJVrkYAxVgoo8FLxu+1llwvKnrIkg6A/YJpW/k79z7Gm+ptfx+pHDetm66qqhkou3n3JXV9wwCU64itKicvTpWTGyc78ec3NgxGJSk06LZtSNB1Uv/I+0RPD7OX7aLRUtfggyYH0hYcWs/OoYUNBWrxeP+NV8t2fHcVUcA0oOdzpR91xJTriA0ESfttXvGKMTkhtmNOZ/SQ7k2lquQwgZ9RNJyXWRTLzyiKrc0sHqN5hxlwHVF5Dup3zXdkxOm6vMqo7MuP3jHk1kJh0kojpg/7uRui9Qn0GEEoIdwn1MGRR2TJqcvxth0ACEIVnzr3jfOXHw2lz532paqy2keR9HQRnJwypaWoZLROqyMWeSofPX5V9Sj5VflhAAgMRhUxNPiBTYB/sm2AX7JtgG+KDZNp0t0BAaAF0dnrj9B+GAYtLPi+z46Nk8s+339MKZL6apXVkHs5MOI6ArGdckI/XLeAEehjNPRRixy20fe5Mg+i8lpfQUHFoIaCisGCgorBvIyi4ZrekN4Yop0cNhBJ6h4RcMNnZORfviMjL9ux6I3F99InZF9+9AfWMxllOQejX5+1hUQhKywQrU+CgPTgkrAWkcSp9o2PcgGscDZkPKSMijnI2rB6Hfo+tUjsBCc9mah8lj6rJTtvLCISueq7jmCs3w4OJUQ31xzbAN9Mood7DinAL4PIds4mshgdA3+1XEEoW7hGjR4juG1/ZzxtQITJfrRarqDyzlxaV3/t7malSOJmaqYK/d2WySj2Wjhlr1vcqINEHMs8FuWX76/K2HfiZ3RZZ17dr8PkZp7AWVRRG9jMb4wQFJRHCAoqIkTltVFKhdLeqGwa0rMdCz0G9bvoMbjfTc9BIbdsKeQOmeryK7jnN/7wFFYoGYYmHnwG9bs096vV0y1QhT6LHiWIBtJ7SXObfjh81pBlXfOfvmzRaur0Sb8YSkOVnRumys6drMrOG6XMzh2hVijZuDNLOMoJIDLP1tOjzNbDLcOGyeAL/7m+uTUwQvt5h/nTP3J+Zf4uS8okSsmcKHyaOUGcVTBCUlgWhQACHZ0/AYKa6FzvZzSuzwP7geFXHAeGWTQVmvr1kYOVd5LXaMlhA5FqPccN+bOZ38iWCyWBjYUV/RAE0MydRaO6OBQ5BXrdc4kIuOkzIjKe7uqIG5tMzBM4n9/4w2MRv8nXUHq2EFm47PC74UxXh0pLytRX0eME0UDwzYEjisdPl+FZ1tuIAhSsDzdNJPePMMuPSFVZxVVl5w1TFpUMUWTnD1ZVVg9EALDtSvACkod7qt+Pn/fvTvla5AobWWWtD2gdgHPKiBSoy640LXLY9tayj6oUIolLV+wvRDKpySHQO8Ux0OuxY5DXI5fwgCS6q2OtqXyVcph6fuMPV/kFlaOM1V3c1pfnhU4c+HdXy9fX0CsEQRQKat2m7U/UdfUhBteOk0kS5kebY0ihwRbF7tVCWVgSrqysDlRWVmv+Bykra0LhypoIBAEkQ+TQKqDbxtVTWWOHvxDz+cXnbq/NOvTXATPIIbcP9MqiujhmMb1c85jenAyHQK8MVhcs20o5DP7devBCdWbJTGPk6Dd+wP6pHyx+o2dK/mKiVwgC2nZ04jZ+/FUqUChonVO9oHNSFEEAkUEvZ+zeOYrIdraarxFcUe2pFondNWRR8utdWkQSX+HdBwvVciWro9vAdir127M9wtbMLQHwUPr7ue0AAJnvsjlfdzWNZp7AO37tzjSVXNnhXElm0uvcRkSfI7PoxXYuDnUML04G1cWxnObqaHbYHlOI33PmYNblR2uMtbgugZ4PFu59fTyJQpZbK9++gF4jiAayhIfTxft+/seY8dDG2amM8dm2WBsrkgSLuqN/fdzw56VP0EpgFxqY4Ltj0xSsF685aC6v8X+6fnsGASIrBh/+wpfMstzI2cwT0B9s2XO3md84AN1yhK+Z93bg3HH/tTQ9c2EOOShMWsXSA2+PZLo69KqT5IuAHgnaYAh2scP+pc2ZttWIZR0gdfU+kg93Jiizc3ssIJnTSzN2E9lOeWglkGYVxJZs/+4KzG+wOEJH4Q9Hf0AAoKoUSofSP85/bOn94vJanwdb9jzCkoPuxcn0mzryR0vTMxfmkIMIkaQzP1m26P9HcmhA3LFjR69mSI4ITWyp4bmry8oHGlo73tIss4fvJ71iGxqcaM3ulhYEW1sVhevzQHj/8VJ1Swu5fSgE4DqBjyD+4VKSo32FnZ9XljlpFe47ur/+YepirfVcXFA+nOzAesYI9DFrSW7xudurn37563mFUOqJJocNRJYO+2TdJGt2pbTQjDnufX+2lRymdsEa/+bcV4JGRVy1tgx9Bb1OEA2g/hFXVNl5w5H6en9sMIcOI1uL2k6R+GghgckoIQX4mb2niLkguzjXEJn0LHFy2nwEEGy0Cq5WwPTGh89earyXPJFIs+NT/bzy8e5XCsUO+d/89hsvPmkFggnJU5+c+RIg2qiYXO/HNra2Ldh7YaGEWXk7edGz3UeOV91OXqlWqSGM64psyPsrprr0D35i7XIr5TBVMyAvSsxc1Fbr+rtgaQ2EY9bPXDtg9og/rC1DX0KvjkF0oFBQxZ9+faUlO7d1MxdDdozW8cGMyV8ylrz0PgGCrC5G452HUyr2//Fn60IlHNcRWyajymH4gONUrk8RQIAMAcCuMSVrROPTrDkqBcxAjEQdITEZdfbh3OsUtmOuDUSWwSJpUFNBeUhTYflwBAAiQO0XAtrLagORpDHbVk/h9MDSWTFP4P3P1kN/CSr4gztkNRAuKHLa0M2TNs3/1toy9DU8P4KANpJIdn51RZmTF4vgWMd1rNH+vncd3ntrqa2Ls9UNVM2FpWGl3/5yWlZZG2bKdQQA/eBsiIGQPFi3FsPn2ojJ8HJ9FrNt9UvMHlhCW3wvfeLNL48fhzuMrLquI+hwQZHThm6btGn+Z9aWoS/i+RIEtJFEpCFJdn6sIXJ0KCdEbmKtWLKGPnnsn9YWQy1XQDVnLm3iXbj5gUoB041Z5/XJYZlxEvsiIELkpqBFkz/lzhm319oxbpVy2C7xp/MfZ116tNUc+QbMHfXmuP/M2mdNGfoynj9BQCtJKMKv9h6An2UsM2AU01EoqH/Eeaf1r/3H1sW52tqiKIVip+ozlzfV33m0GhZJ2F0JF2QuOchMOt9z3JDvg1+evB9i0c3eFsJclD/OHX73uzO/iPhNIWbIp564cf76qOlDD1lbjr6MF4Mg7RD/9OsXzdfjtxojh/YBA4gsZc2fsYM1c/I+Gwpkda9SpVBMydv102lhVuHMniCHU1jA5SEfr5kHsehWN7yJeQJ24o8Xvi5OzFhujny2EEk65f3Fs4NGRdy0tix9HS8UQTRovn57iejX4wfbBs2mFdCGSS9wWrn4E+aY4VZbkirKzO9f8O1vx+V8QUhPkEN73o7tkDfo3WWL2RHcp9aQWyaU0J4ev/FO9qVH7yoVSpo58jFc7EtmfrJ8KifIM9caMphCRV5VRG1ZXbCkSerMK6vrhwBCa7TNdrlkHB92jqOrfQXHh53p5st+7raXF44gGsCFJRGCr77/W1XXwEUwyzwNKSzRwb7SYe6Ub+wnj/m5K9ZwLUSZ+UOzP/7+Zkv7rJY5Xb6ukEObng1Elo7a9foYdgS3y1O6MqGE+ezEjbXZ/z7UEMPZeP6dn30GBV+Y+v7LS6n29C672BgDLIcJxWml43OTC8YVp5fGludVx2AjthirOzqLWs2N9E0Ii+GeHTg65CrDntYjchrDC0kQ0L7+QrD3wAHpo5RX8ObqEcy2A9pKJUBQPWvy6ENOMyftI7s4mfRiRaNFrrBJXbc9W14nCMY+MBuILGCGcu8zAn2eQi5OpVQvThYRIitJLHqenYuTTjcJFkpIMr4gCAGAIiwoD27mC3wbC8oH1mcWxapaFViXbAwv15wpv3wUamkdNZbx/DL+vruh4NaTlUq5kmkucYkQSRqzZPwHQ5dM+N7SPE0BlsPEwqdFkx9dfLws/2nxBFihdLTGi4UEkaThMdy/Ji8Y9mNwtE+yteU2hBeWIFpIHz6Z1fDj4YMqkaTVBQQxsbUA6u2spg8Iv+A4efSvjAHhl20okMmC1ic+nZ73+YF/0A+MxvVO9F44dSd7eP/r1ihPVWLqpMwj/3wuKucNRCtE7K71E90HhZocA6jkMLn0fvqMnEsPV9ZkFk+xtMvn4O3yZOr7i19xtXKXStokdb519M6bT2+krpMIm9k92eoGRfkkzHx11EdRQ7k9EmYVjReeIKA12ILYoe7HI7slj1JWIh3k0Dey6bYqqDcmk17HGjbwNGvYgHOsgeEGVw+W/n7u3cozV75C2u0Cdp6cxIH//WAkkWJdA6VKDlOurv4sS8pv9NeWZ/Bbi9Zyp47AnUFSyWFi5ZOcSYU3U+ZVPsmZCytUDsDAeMhQd1TTagxZMv7jgfNi95AoZKuVRUOMf3649FFGQtYqWKGkofda6WrcMONT6p3fg6O8r616d/rbHr7sHhs/9diadGuCyGI0ct7fsEqWlfdL7XeHjsD8zi4Q0NsTQ79VgUVSNv9qwhuagwCR65kDwm+wBoZfYA0IuwvpdsNU6MALmvqxNjlaE6WQ5eiHr0b0N8OU8ASeZYnpk6oe506rzSiaoFQomXhBIYxFHQHt1weMDD87YsWUN518XK02LQ7LYeq1X65vSrr4eKuWGB359wI5NEdOWvnkTYt/Sp396sgv5i4f+TlEISutVT4t+kQLgob44ZPYqi/238WrYNCFqCNktlM+MzwwnhEWeF8plDiWHL3QGspG64LhHjfqQOCal9Zbiyia1uDZwbM/Fl1+sAYtW+TyaW8QKZCKl1E0oqGgYoRY07oY2LDGkp2mKExa3aqTH3pZM8BCZkLmtL+/Pf+9tKnZXy9/oN+C64wd28k7ZFLUr6NmDjpIRhlGFTIlsbqsLqI0rzokL618eHVZ/TA0cfS60iiiufuwn2754qUFnr7OVvVC6HME0aBs6+fx0uwCg1s1AxO7OVnqOkL14qT5Lpyy3X1czIWuyqySw4TKxNSXsk9e3yas4IXjyYbtg5sjG96bGaBa1THrZ24cOD/WKvGrpE1S5rlvz/2YkZC1BDd/oG0JO8vi4s1OrC2vG4GgyDty5qAPl26Z9bmp/MRNUscnd3Nm37rwdHlxXs0ogHrpARQ5tI6mZIgkXffetKWj4yLOW6O8oK8SRFZYGl68aedTBABSzzTl+GmRmPQaiotjCc3LLduGQm6meXFyiBBZTWbRC+1cHFv3XxSX1zqoFLC/SgHbiMp5IS1ymCqs4IVKeYJAuUiq5weFK7uVYgHbMWlFq09+GG6NVYD5yfmjTu86fUzSJPPGlQ1Vd5AduXbsopE/9h8bfqQwvWzwid0Xz2qv8Q72uP/BL+tGWZp/bmpZ1KlDt9/NSatYDDoiW+q/5DRj03nLRmx+Zd1Yqzha9kmCaMA7enYb/8ylncYUxn5Y/z8UdQIPSWH5eMPksL4BsCvKbEl67EDPGxCLVlP2JO9VY+lN2fry3LCJA891t66v/Xxt653j8V+Y2ojIxdslZ+Kro3cNnhTdYbQ99OGJ488SchZrr1/32aKp/UeHdnn9f05qWfQ37/95QShs9sYjh/bz5Fn9D76xddq67pa9TwzS8eD6yrxP6y7cWKtWKD0MKaAoq3Bs2N6PRmq6t/V3Hs1pTMmaK8wqnNgXycGJ8L/mNzLyrP/IiAsIAJTT6/c+MJae76Dg890lh2YgfmzbsSP5jwteMkYOEplUP3X1xPeHzxz8CxkzQ1aWV90fdb00NIbbpcVXCjkMbl54uurSqaTNWnIYq7srF1LXIgAQNmydtrY7ddBnCSJKyRjVYoQcmkMpknhlv/f1xfC9Hw33WDjtgOYQZuaPKP3jwmfCrMIxLww5jHT5OOH+t4a8NnWbW2TAw9Zy8wT0vzfuvyUTST0MpcdwcSid+v7Ly7pTv421jW6H3z38F7+8brixskbEhv68YPPsLXR7Gu4W3w08YYj2eu9g91yIQkYslaU4tzpw3yfnz1SW1Udb8iwun09dowYE0Vtbp27paj30WYLUX7jxpjkKKK8TROXt+ulKyM63phApUDMrPCgx6ustY4WZBQMrzt98u+5B6gIEEMgvGDkU3PEDT4dMG/adW0RAqrbMSjlMvfHFiUsiXlO4MdnGvj7zdao9vcvR8RtrG70PvXkooZHf5GOsrK99tnhyZGyYUQMqRj6LQxLlpJaN+nzTiStyuVI/UJ4Z08KXz6du9vJ1yp+7KKZLcYT7JEFgfr2L6FnWXG2F6G47AGQIIEAIADbaihJmFcamvrXretinb82muDjVa65lhQemsMIDX4GF4o3VV+4vq7xy7xVZnSDqeZKD5eX6lDth0LF+04b9Ycei62yMKeIJnC9u/fm8oJw/wpRs+fcy5gSNiuhSP78krcT3zK4z8abI4RnknmCKHEDn3tb7SJbIYogcHj7OSaMnRxyPHhrwoLVumpppV88/fTPxbv48vGfx095b+7j93LIio70fWFoffZIggjuPXtMQALvtgOZwHDP0mNvsiT8VfPPLb80VvGjt782VtSPS3v3mceiH6yYyAn06tlMgsxj1voumfKs5RAVlgbwHqQvqnmRPFBaWj+6OEctccjgFesb7jIy87jko5JRzkBfufub8/Aru5R1Hboh4mJCgBoibdy9z0bgmydtUe7pFTpsachx+9/BdWKH0NvUisIXIZgWTwMjnYa4sdbVNXp9vOvE3mhxkiCR67a1JKyfNHvAX9voBQwMS9n156aCmW6VfPwRox3t/n/zt1JpIewcqblfQEPrkLFbWinefyesE0Wg7gnbuPXzvR1E0rk+65pfq8zeXV5y+vAMWSXy0c+UEMlkatGHpcs64GL1KRgMWSpiCzMJRDZmFw5oKyoc2FZRHqxRKJ7TC4BnFtIfuhjlt1xIhksAp0OuZY6B3smuEfyInIuAehWW8K5R7M2Xene/+/F0pV+p4F1NYNL57hN+VgvuZy/CUefKmuS8NmD7UaBnRMNStQtVtM4IATctM1KTv4u2c+eGxtyNMpfve/G+z62tF2mUDigM3P7QzZxzy8fojl3PSyqdoy+Psyirb9t3iMZ6+zka7aV/vuHDo1tWs1XgvqZFjgk7u/GreYnPrBPRFgsgrqn2yXv+4FPtm1oDiyXkcdeDTIejrW+QKUs3Ve4urr9zb1FxRG6l94M7Do0/027BkA5nFEJibdzNP4NrMF/iKK2rDpfxGpkIoCW7fGh4ICipoRIiMMLw5rW9tBAEtNBeHHDKL0czyds2kuTiUmRMjVwtZk8Thznd/7itKzFyCdh2hsOhVgxeP/yaybeWf+oc5O2pghdIeYMjoPzjo75e/WjXPnLwaaxs5h9489FDAa/LFs87bQiTpmt3LppzefWE3r7w+Rnt+55l33Bw5DkbLtP+DkydTEnIXaZ/VO98sjYsYGnjN2D0JV9Nn7dt5/rz2pUOGSNJt3y2OCY32NhmKSS5Xkj94+9SNjNSKWLwWfOeXc+JixwYbzR+NPtfFanzwdD5et0UDp7FD9bZTI1IgpefsCb9rjoaUrGG1t5OW8R+kzuM9SF1cl5IzifvqzI89p4w8aE7AaaqrI09zOEdwk3qkcO27ymZderjm0W9XPlMqlM7t1me1z6Dgy/0mDPyVOyriAgn1BvYdHHQu/37Wawh6sx0EgLK00glKOUwkUch6YYfQgOUw9fC7h/8yQo66NbuXTQuI8nscGRt689qxhBht5rfPPFwz/82pO42lHxYT+O+TDoIQwIU/7r1miiB//37/I/QuXfOWjXzfHHJoQKGQ4Pd2zFz4+vLDT5saZW7YJRL79t76bshQ/3CKHcmstf+9GlnRGhBnFYzD64drFMl57NDTxu51Ghj2MGzLinWxJ3e79P90w2S3sUMOl567/Vb8so+yS87dXt4ih63n5mohlHKYlHb27qt/LPk0+95PFw4gANh6DQo+N27j/FfXnv3EZc5Xa2aETBx4noTpnoROHPiXGkMOzXdYoWSWpZWMMZXvsW3HjvLK6kZoXUcw5Khfs3vZGA05NL9Ejg47qT2n6ULeu/hkY0NtE9tY+gNHh1wkQWSJVr68tPKFaY8KDVrSs1PLB1SUNQxqL4qma5UzY1GMRUEkXDms2rffi1uFF+urtlYUcuFc6kpz0+pTLUiLXEEQPs0aizfgpXi4PqC4OOHue4EFkQIhzgPDrmsOAMC7Mr7AVZBZOKzk/O0NNC9OGt2Lk8rw5tT3fInaNqzJv5myjF9QMZTCotdEzY39yS0i4J5HpP8zc+73Hxx8AwGEZgQAKnayoCyjJJYbE3zL0L3//vDvjrzkgrl4ngWktm7V1IAov45o+97BHlkBkb43C9LKJiCtsTaU9oc/PXt48/6VxjbTsQ2M8o7PSC6ajrQ7k/769b+/RsYEXHf3ZWf4BbslhUT7dExlpz4qmgNQRJ2+MGYfRLFo8qsVo8b2uzxyTPDJhPj8l7VvFO3Y8PcjD7fOmhP9M8XOdLp9iiDSwrLBCAB2eLNBrnGxx7qarp2LI89j3BCrObiZi5r0okBbCpkyZMXUbV1do0GikJV+g4PuFCXnT8O+OMrSS0cYui8zIXPqvT8fbDfgdtOsGXNoWw405m2YsvGLVQfS2qbRCSA/vWza0d0XDy7YELdOO/iWNyso8RdSVjy8mTGnJK9mAkDt16i5oJ4nDLx58Wkg0u50SGdRa4eM6Xd02sKhPz1LKhqDdh0ZOqZfl0M8rVoXuznpUfFMuVxFQ+ff1CTzj7+TPyduaphJT4M+1cWSFpYNMTT16jgk8tLzls9SuEUGFLCDvDK6u4DJK8LvXls96Cp7aXrpULzr+WV8n1O7/jyBO40LAHjpnVkrAqL8cFfreQd7ZI57adgu9PV3Lz5Z8+nKg0kZSQUTT35/Zdfbs76pPbn/+n4NOVpbDZxFXdoBdOs218JmzvULz7a8ufingsK8mkFacji7MrNcOKwut+Q+fs7VM2ZHH8LL/8rVrBXmpNHXCNIfjxxktmORnSfnuUfAeF5wC/R8ZMD+QqvKq+yHvhaWw4RTn505CaP2R0HbOCYsHf3h8JlDjI7lZq6Z8DE30ucS2sZRXVY/eM87x65fO/PoA5msPW3L7UNETW8ZaXc6dOawCrpbNzNmR3+Dl//DR6VTGxubHUzd36cIIqusjew0OnUWms71sXqQ574ETrBHsiHlqyuri0Rfe/vone2V+dXD8Mih+T/6pREm9yKBKGTw5revvBQ2hHva6p4FqPTYHJa4u3Xj6+dcPWSo77+deXXIZ/PwYcl4U/f3KYJICssi1JgHohn0UbzcMp63bM8TNHu6jOliX4CnfPwyfoj2uuK0kgG3j93dZkyZc5IKppiTJ0Qhy9bvWrSCzqKWW40cmOtvX8takhifO6m79TN6TPBpvLwePCwZa+rePjNIbydH67pXBLNYhuLiWPi85XveYLk65DXyhIFY5avMr2qdMoXlMOXUrjNHO3zUDCjztaPx26NGh/5DNrFEV9wkpf7wwakrolbXc6PkkA8e3e9ScJTP5ZAo7zTNGBkBABI1yZxz0spj469mLOLXCsMMuPHY7N5x4S+vI85h3r7OFV2tm6HD/G7iEbGkVDDI1L19hyAFZQOBgfXZDK7P//cEcfZ2qShJL+1oVUF7PVXlV0eDtq7V1kaeMNRA1BGpZryiOVdbXh9+YveF75dve8ngOgqFHG4lR356eaw+OToUXRK3IObg7GWjvmTa03AH2v2HBiQsXjv2s/irGXN+2Xt9j1Ao88W+6eXyFsaBvTf++/nel+d2tW44bqxalr1daWOjbvrZubxIU/f2mS6WpLAsFLs+W7vGmcSk/39PEKarfZYaQw5N/Uiamj2L00pibh27+x6aHNq6Cx4ceGnFpy8vQRvVkq6nrzn86Z8HFTiGU4UcpuzZdLSdHITOiDLtNg5NOr7Bbrf3X9jEffWtuM2GyIHGmLiIc/tPrY8IjfJOwHvTP3lUMic9tXxYd+rH1ZVVjNNKUWQypVEO9BmCyPkCLv7bigAork4WeWh2B8k//b3l2IzNTX8u3ZFRm1E0QO/8b5feOTBho+yXae/VZf/7YE5vyUWzp8sR1BJUdEigP7Yd/1sNAKXDWo603UOCyMKFW2aviRoddmHQxKiDmvGdljhJ1zPWfL7qQMqja2nzFXK4o6fxwwenDmrIoUZHGUFFk1mwZuzbu35bM97BmWHR1nEse6rkk70vT/H0cUrDTstqjhNHHrzdnfph2dtV4Y2HamqFRsPV9CWC+Bpoymt6SwZeetGg7HN3v1YqlCwxryk87fj17ejzYp7A++mJm98gAFCUCqXz/Z8uHJU1SZx7QzY7FrU1eJo2YgvadUQsbHbviELSTg6NQs/eMGWTI8e+NVbW4i2z3gyI9LmlVR7NtdVl9eG/fnb2z9cn7JJvmbcn44Ml+7IzkoteRYdWUneSQ7Vyy7Sls5fFdnlHXgqF1PzG1qnLsT5hGnmSH5bM59UIXbqadklpw2AEY4PRfPf3c5YZu6/PEERaWRuGN9vB4HpbfY8QQyi6/eS1zmlmAGQiqc76BpUcJqAVDFYoaVmXHprlUdtdOLg6yNHhjHS7owSge44AvILcE0bMHPKb9n4yhQy/8e2rU4dMivpJZ5awrazEep4wvLqsPgT9kkK/6VdumbZs/OxB3Y6wHxHtnRoW7Xlex4+qTZlt/jlvvg8VGk+fVoTV1Ir7oaNOaj5zOEyTXfM+QRBYKIYQAMiGFi31Fsrup89Bz9PTXRx1PEwdfDhldBeHArR8lRklM3tDNgTHPmRkGlW1cMus9dg0IAoZXrFt/uvrPls009GVlWOujWPllmlrx88edMJaZZm9aMh+0N7KoQPh/XM+db1cprT4gX/z3Z29WnKokc6WaUC0p0E/NS36BEEUfEGIsRV9vYHa9KL+MqHUDZ2/a4S/XpRxToR/PFq+ssd5E5qbJHa9ISOuMuO0usNnDNrvHeyRbSidAaND//nqr3dCX9+1cPqA2JDfjZEjbkHM9vGzB1l1V6pRY/rdZNhTixFMcLjGJpnXxfOpr1mS1qe7rh3MzuVNQEedbNMZApg+NcRki9cnCALaV7HhDbJ6a71X1ZOcqdj8nQO9UrDXsQO9khHdfi65KqNkXG/IiPumx5CDBJEEM1ZP3G5OegNHh15CAIANkSNySMCfr74VZ3Q9SFcxd+Hg/XhkP/RTwp7SknofU/c3NjYz/7Phz9Nnz2esQRA0OQit5PDzdXwwcji+vxkafYIgjZkFIbjkAKD3WpCMotHYB2bv7ZqKvY4d5JmiKx8BVKUXm1yXYQ0Ye9Nrj+mrJ+w0FKIHiyfx2TOfJOSuxkvPyZWVtfGLBct7qizTZ/f/FaKQRNiWUCZXsV5feyLx6pUs3K5rY2Oz/a+/PXx73oLfChMflS3AW3mqaZC2fzBxgzlyvNCGQml5TUDuvuPfNGUVzkYMhPYHvTAGUclhYk1miY5RjMZ2yLez199f0CXIKxWrTCWP/x971wHV1PX/H4UMCJAwMlhJ2EMZKigqIA4QqyLa1lq3tWq1/bfaYa221mqHP7u0rbtVa1uteysCKgIKKBtH2EkYGawkrAQ0738CCb5cXkgICSLt55ycwyN53/t9797Pnd9RNGUgGKKNHAQigR0WG7JPF1l1fJHd/m3nDqLJw+IwLRt+XDALh8fqnclLG0g2FuJX5oVs//NI+jfIjRHFp1HU5rTliysX9u5NrQgMcr6Jx2OeKv7/+LHA6xFLEAZDkBmaWYsKK5aN+Tx4pLNOae8GLUHY/1x9m30i/vunsnZCb6H9B2IE4ReWjVOGEupugCQ69QHabzF4LExyoeQ3VNYGqn5fXykMahU1Ey1IlkY7r1Ffb6Cv18bPDN6nzYREhWM/x++RyTooaPIWvjd1uROTbPBc7iAWLR330+3k4vnsiobhaOsrHl/iWnPt0XJdbL5UeHV2wIH33wnTGjhbhUE3xXoqlZk++u7QgfKjF/eC5JAD5FD8LRU3G91Ntra4ciy44CXRKY81/d6WTi2Ekfv4sAlUVVih0XnJUAAbsxxoMFf/TNl6/kDSZ9rkZCU/mpGVwuqeniDzrwRH+B6fEjeqV3N4QwFvjpF+tX32DBzerFqX9ZUO5NixZVNUn0KRDiqCPJXKsPmf/3KFf+veCjnQwJA5MeSIff42YaOnsfXiFZaHwoBXnA2dptFXwYZBZT07Ze7SlVdcNdqYOlYWVTNBckCqjuRZx4K99mfKth3v/H5BJm23QJOj+P/h7y7/gjwzgZTv2pJIqFzxSf9i3fYVTFd7zu79C8KpNGu2PtbCCpBI5vyfdsTGbtkU9Ulfyx9UBCn8av/+xoelU9V7PvV9fbWcFF2ND29svWpLqkLAbE5kL2fUKRbUOYJQOsmjIocClQUVRiUIBJnYwYjTcwhBDrBjKSngxO788M9raCQ5tf/GpxJRKxNpSqKy8Xpr/fS3rUmEfvto9BU+vrSKw38s8Z8a47cPhrssZXQhBx5v1rjojZFfXTq11DNqkuclfcoeNAQpO3J+Y33Oo6WaHpjg4pAX+PHSGUhyqP5u4vIdjKVXk6CB3CpucQajflhRbDSeI9gyqMVyWL2B8Yqre9htGRIN/Eai+nS0c81xYP7HsYssiQQ+Mp+j4ruifG7Ejx/8eQYpo5pd6xZ/MvMDNVMSZV2ERPgcHxPpe9WYz9AbSDYWzV9unbH6xMnlbkuXjd3GYNrmwSimI0SSOW/SRM/TX2yMmp+auMb5kw8nfm5jY6F3+uhBsUivz3o4mn0yfpsmcjjHhP/Pb9Wrm0zx2Kc53x3pER/3iazdETKSTVZtcVUg2FvhrS1rzEmWGm147OiUArCBtcs6qGJBowORamMUPZvFrR4o704aHhvyl99ozyu/bzvzT3EBJ1otRGkBN+bYrmtb578/bTPUOXrc3ApDJhZgz4zFYSRL3o/ul7GgoeDqasd5Z034ZsWnra3jpQp2vb+qHTvQrIv6QwY0PPcRRLEoLzlw6rCaIw+CHMP+b8Eq//fnbzBVBkDDWlmWghXYxOUzjaVfI1fQYwfFkmrD6e0eDB4rNycS2HJgUckrqtIaqlNf8Nh1juC7ozHInaOcHY3U+P4Pi2JGhPsdBJ8l/lTm5wUZJcGsPM6I+ymsBWjTltmLwz4n00hCY+muL8zNMXI/X1q+ny8tW/ExNDmgwUCQ6mupa5qr+H5o5HB7fdqn9JfD1MwY8BTbenBHo0XYYLQpVgNXMAxsMDYuFK0uvlZUmx6LylqO0NtYejaLW5zBOTiBSOiOE4bDY+G3Ns9Z5RlATwB3g/76OeH3k/tvfotGDieG/ePp88bsNpbegx3PlSBPpTJ8xYn4z9HIYT9y2CXvpbHbwXsILrRCsIJbhY1G65kbuEJ/UD8rqq3WMwCql3MxcltY8RELRcONpSePU+cPdhwOTLKam6qCJO9+M+9VSyKBiyRuNacugFXAnYo2xY1bEvYxTkv40qGM50qQqmtpb7RLmskgOV7C4ZqHvzd/Jdo95hTbCrBnbiip9DKWjg1coTuonxXVRmsER2sK6SG4T19TXO1rDB35bKGrMmSOWnk0hn2Pkc6KRGha+vGM1bpslbp5O6ROiHnx4o0ZEs+VILxb995C255zmRb2rbmGSOhWdFqpHNgLbxE0GIUgbaJmfIe0w169MZkoRgeWtnuJFJsqsPE1CkQuxtCTx6n1Ahs7gWhRikPkIEciONLvqlcA/ba2rdIl70/dZAx9XyQ8N4K0CeqdJaXccTCsfuL7Eg7b7DEvRuOc14pOewwBJ7xSSYujpFJgcM+9JmHjMHDaAnd67xG0BjSzZ1A4YONrEbUaZTOBx6kbBhr1OdDJxb3dE7skYktv5PAJZKT4BdG1WrsOdTy3bV5BWk4UjHCGUVWwbaD3FSxRs82SjSe9EGmDpapcMVcwwtqFmoj8bWu92I6fXzpWXFXbGRGlpV6MtbAjtpvbWbPtPV3SyF4uva4lGipr7VGmIXJrqo3W/H+WdtbFaI2vuqjK3cnbWWc7JmmrzLSyqEahf6dPCcXFLpdob61Wfk2F0BtJDkV5NC22UoGhHslEO8vqxvoWJxjqeTodMdV/p646DmU8N4I0FJRMVgtBozwzcIwM1hqEmuBEzm+qVhkDdp0WCwpKIl3GByTy80uGF1+9+1HFrZzXVWEse/SUyJ42wONs8OKp3zsFeaSD5XS0yRjgNMTGiaxT1HUre+smtJ4ZgkxIvd338C4rIicpf35pbsVUcX0TU9M0yNrOqmx8bMivUfPG7edX1o9S3xCAIIa3Yw9TfBDjovz/vvxPxnqQHCQ7y5rouJH9zq8+FDDgBMnbtv9vDNGSJ6moDoMQxICVF+SRvinaZFgzHViS6tpAZI5Czu3cufUlVWMFD8onPiNA7+To8tUom1P10Z45NH+3lMA5EZ97hAd0ly8RiMhq98MmkJkFTmeLXGuKzQMRkJG2urja3cnbSc3Rqqqo2is7IW9ZdmLewmZxq7O2BbTifYnqm9wvH771062zmRuaxK124IaAA8O+QJt+Xv4uKfDxjPVgWaZmpsIv1x47PyHG/0hkjP+AR70fTBhwgvDv5s2BlfZTSCtRCDaBCC7UApyWnH1Q1zQrh3un8PVnETogqLWhyaO5ockDUpFOLUdgz3hR4MhVU1gRUV1QcdvB3/VGxJpZ71G9XB61ilvoSKNDuGv7VucYXBZEQlujQKRWvqKDVv2Rk5A7OePS/Y1lBexJKMHcunWDAHKorpURS6jIQA3KZ5QzfRy1+jv4BtHTwHej+Aj5kiABXxLk5uOgGC3/I8hAoZnLc4AR8ZnAnp7oQe/hwooGG0+XLLQYrxAKOZAhSkFyoPmZVBdWTD62elf+8OmhOySCxs7o30ijQzMcVmdTEWsK6VFlcXUIsnwBW0gsTHkQef1g4v/43NrR3eUj4lUhjTIhxDRS7Vr1N9zztzSGfY6mHSw1/UgEsSWRwJGIWxndZISfvRshX0zX9VmHKgaUIE9l7Y49pg2IaVDdg7KxrOPx79AnjT5pQbWt1STH1pN+D40ccqU8CPCFMMNh6oh0KkdBgkau0LFD1uEA+pkAjc8s/0rGRuhZ2BvldxBkx6DoHGbIgmQpgxHB3BTlZ166/0Xq6bvqfi4QhEhn/azBE4iEUhsqSSyTtpvwOHV+EGSCB40OYeS18l14BTJ6rKdA5GaUTcq8zZotk3bYIxPWIDuOSna90Q42XxQMKEHEJZVumsih+LTUNvo8/OPyrw+OXP6ZOsr3Cn1yyG+MyaMvgnLwRMtmaxdqnqhSGATKg5QV7Bzsc9F9cvBRxdrCCiBbm6jZQlhSNZZzv2gSKyl7oWIqBQFTPuScHgJGIl3RFfDgmTwFGWQy9XTOyO8odHLWqOjAs+6BzCS6t2MWFshHyGPXuuamPJqWnpC/uIZdPwZtfaWAdwD9Dpo+Vexa56QLOStT4gvfFIvbnJD3Q7D6qK7Qp03a0ffcZ0MMA70GsdG6gFYGCeNls2bWZLNm5uw7W+k1Z+JO95fHH8ITLUXdgjzpyY0qgiAaM3W4W3zY2rnrSAyaxsM8c5JlKyPE54biE7Fm1qbHidnTMo/d2FjPFYaB8lAW+DqncsbgMBxdNgt8Rnv+HbUo8gf3QGavO2QOTHKFA3PCnpcXT9iTfj1/0pkDN3bXCcQ+oGWBdxAjDXlfXkZp+NUTme/nZpa9grr416Afl13voeuzDlUMKEF0JIdaBUolLS75R678UHgs4UuPl8cf9Jw+bgeRTuM7BvuklN3MWgs25uBl07/ojRxo8I0adU3xeZSYHXdr78WdLaKuOTmafoUJuctFfJE3kWojVvbYitGpA4YgUwiC7GHIxLRF1IITCUS+VcXVAb2RQzFizP0obqU2YqBh7NTAm3V88aHTB2/uQL47Oyqp3J5G6jSFSY0vmHvuaNqHVey60ZrIqbEj6JJn1Ve9hhoGfBcLrcH4LZnxCZZoya5Oy5/Py2ZN64yiCKlvbT6RdVg+Ppe87tG522tcJwUfcZsc/BtaBVdmsWJoAe49ArrpAr+oUeeZId4J1388s7co7cHing3GBOIUsmPZhexYpG6oja/3kUM+ZeGEzVGLIr/G9iM/YVE+JxLsWJjeDjdS4wsWnD+atqmKU+erUT8YgqyJFtzouJFHR4S6Xzq4M3FPSRF/FCjv347nM4IAFYYlWorcXg47qfjIxM12ZVfvLCy9endVs7ARrYJxZTezVpXeyFoOQyZPukK8PPuem8WKDnlzut7BzCxIlq2zty5Zcv90alrinkt7OuXrGBxAF3JgcJimpdvmz/Qd43W7P+9SImqxKLhXNgUcde+lsBZkdsay0qhf+5gJPmeiZ408ODLU/VaPulGXV98fHYcCBpQgpjgsarouZGwrHNGy3u+NqbsUH25a/iTW2eQPBA/Kpqvt1Xc1PjO0xllbXDW+SdBAsaLa9svBJ+TV8IMJey59CsOQq6HIobiHQien95ccChTlcRTkwKKUb4GmnxXRojYixn/3zNfH7CHTiD12CAV8sTXYEXj40Nj91fNFx4ASxIpOE6gqrGvPvasiGkq4nm5Qz6g49LDAm4qPmMv3KTiWuL7sZtYCOWyChRCNT504XbLLUwtjA1+d8Ft/9bVzoYhqubVqjd0nbPgfFiSCrLqo2h2GIFIPuzAYggkkQhGJSpKY4TD8lNPpXyJ7ZjMcVu+0xkjcTShEX3CDpvlEQvGcJWE/KKZSODymR6A7FcSiNk9QFg6PaTCEri8yBpQgli60gu6AAIjT3xZBg1tv9xHpNFb4hkVv+s+P+iz/WOL60hvZK+TKnhJCWXBys1izDUEQMzxWDja+iIUTf3H0dtbpQLOyqDrotoIgiGkLlUnut1uoTNpump9RNqO3kcuRQX48Z0nY1xNi/LUGaC5h8TzQiObCtC/qr64vOgbU3N0Mj31qTrZ5CCHSdUFdDk9jdLmfRKfVTNiwaO2C018xfF4etxOCoFY5SqJ6dlZRTJuo2a6/+sLASKVo6LUcoXUfRJii7cz1FwUZZVOlsg5b9VHDREkM+8f/t3n2wl3HV/vpQg6oczu3biSMEmjOy5um12bHUMKA+4PYDfe4DYaVaZO0OjWUcN11lYEnWtaFr5u77rXfNri6jvc/jDQdUVoIv8RKyn61v7rCENTaPY1TNvR2WYdrH2V0j5RK3frtvpp2veANCCCuJdGidMX66Yt2Hl/jF6EjMVTIyiiPRgs05x/k8q/3BxlwgjiND4x/1is/6624afnz+irLhkEVTv3yzTdx1gQhaDrCSspZ1F9d7emUIiQ5lPrqPC1t4IvwoF0VQZkqTV9IRC2E/MyyODmCuFgcpm7Puff8ouJGaXUVACGVdpjczyjvjJSOTFhDoRFLGa72//pF+oAThBbsl2CKw0jABWX5jawl+sp0DfM/DiN6P8XfgpKq8YLiqn6dBCvWIBAMIQLGmUCN/EaCrvc3i1t9wGButjSSxoWyLrifzHpNKuuwhJXkUMgPCHU/h8NjO/SRl5bMihOL2shyYHEfFTPseH/0HCoYcIKY4bEyp/FBx8HdlmahyLMs6b5e+fy8poz6C5SnqPBHidkr+qMrBoepAlNPt4pb++L/bgoSF4PD9Gv7+cbFnOVI03eFzCmzRp3UV96xI+kfgORQyI+KGfZHf/QcKnguPulkf/fraOcIBccTtz6Rtvf5+NYpwD2L5ETOAOU9SspZ1oGS61tX2DMoAlgZqKGbyKIWndOpcYtqPEHi0piUSn31KWfVDCsr4oUB27i8EaHuSfrIS4ovnMlh14eBdUFn2uURSRb/+kNCaCAJUltYOiL9f0cPnHntU37mzhNn0Q7ZRFyBX96xhD5H4FZg9OLoraC8VnEL+WFSzlx9dbZQxY9CbKM2CkTDdL2/XdpOAhsfFofR2dgRxNUTmWtAeeFT/Y/oI0sq7bA4tC9lJ1pHxWbXB82Y+nPjK7F7H+zfk7KFzxOT9dX5RYfRCdIiaKAkb9x9IumjXTkVN7NWSMUtVNQTaOVWbf7xpM38gp4J+rXBZ/LIazYu1EJQXtbplPf01Z1EtRGAZwwNAhFN1/t5nLrh4LM6MMlaY2qhQSJqIWXeZi0B5U2I8T+kj7xvv7i4h8+TuD2TZQKcp5hAPL5k2JEj6V/EzdrP+enHG9va2jqMHkl/sMGoBBEWlo5IeHfHfV42a26v5hnq6YvNb/3v77NNggbnvpbnPyN0LyivjlsbUllQHqaP/iQq6SF4ANcsbnVul7ab6nJ/PV/kiHxWGypRY9IdbbhyInO5VKryJemS5xtIv+Xu46CzC7AKp4/fW52aXLykRz1oNpMxP/5P9mcrVx5L4PHE/yoLX6MRRMzlM29v2pMklbTQOz3fYOSZAMIfHKgQxXdNwkbGxQ9+Pd8kaOhTZfhOGfmHGQ7bCFZw8u/xG/V5BgKJ0G6GxdaC8gScWq2hTptELZgmcSsd2QBtqaQqffSQSdtxSedzegRXiJ41ck9fZV0+l7tkz84be/pAju5sTo9ZwvCP11+42tbWMSBprQcDjEIQxUL7ztbfzj2RPbFV9w9XCyzQw3ccaVclETSOOr/u16QmQYPOUxoLkmWr//Qxv4MVzC1gT+MWlAfp8yxkBrkUlFdVVK01CDWfUxsATiEdGGStAefQkHg+Z5lY3EZByrMiWpRPiPE/3Rc5l8/lLv9xe/yhPpMDufHBEoR9/+MtndJIDwUYhSBlV++8JaoUBqmCEMgR7qzd17AJZIrDiGw9ne9Th7uddA72/cve0/kOgWLzWBVYoUkoGn123a8ZwuJKnU/Zh0WN2gcjTq9VFXzrt+uf6/MsZAa5EExjwGfXavXV5nHqAuXAeggtVq42yKQd2DN/3NkANuZXl4T1KbDb73uTP/lhe/xvXWkmOp9F4ulDy/byoV0Ln+B92MuHeoPOtCtAI4ccINOZ8wUfllfU92o/N1RgFGNF1rnkD5EheYDeSuY2KfiQ++Tgw84hvvfR7u+QtmN4heXjagrLJ5SlFcw4s253ftSG+XM9wgM0ZjjiF1WNuH8m5f2HSblzQWthRQWzC9lzOPnlIYxAN9QyNYFCpzwAo47wObWB2u7jFNV0jlgw/KyBOTDID/tStgIJ53NWoEUdOXkk7WMuu8551rwx+1yY9hWa7pdKOyy+/eLi/nsZ5bHhkV6n/YPol0eHuqYyXO3L0X4vamy1vpVcPPP48awPyysaRiANQhFpuM3+Opa9dvOmaL03QF4UmMCqlmwgVKblTUnZeigRbTFOoNjkRX3z9jwSndYnK9EGjoDBSspeZorD1o5ZOEUtbm+HtN3i8jfHfylOe/AmsreDgN4P6grk9njZrlVTSTQbnc8iHmcWTzyw/o+byKgjFkQL3reXNjr2dt9Xb+27w2bxxiHNTH6+vJ5kpWMSf6gr8sj47z49db1NGegBjDqijIjSETNrxI8r10Z9icdj1LJecdh1zGOH774XHOqWHh7pfQlvrtncHQ2HDqWv2703bbtc6eGJDI+Ex2Oarl9a4WhrhKQ1gwkGJ0jKl7+d5N4peA0kB9GFmj5z90dTzPqRfL5D2m7SJm6hWlNtOs8SxIJG4qlPfrtaxxWOQ5YHwagjV+c1BotpiVg4ccvY18J2YvHYJ9rKbBa1ED+L/UYExvL67Oh7TBqTgpppSiZtN1kz5Wsp0nXYjkoq/eHMOp0y8kpErcTDuxK+Trle+A4yJA8YdQQ5hXRh2qd/tXPebCqNKFDJ4bDrnBlMe702BlQ4czYvZtu3ideQ4ZFU5a9fF7li8YJR/XYrGMww6BpEKmq25N4pmAGSwxSHlShGjv6QA1Im6VeRo0Pajj3/xR+XQHLAvZBD8Z1M1kFI+D3hu90rf82tLqrWupawJBHEJAqpRA7I4hbVjNN0D5tVEwr61TO8HXTyIclIZk1//429RbcR5IABcoDrq05feXb92A/f/vOSYkqlktVfcijwypyg+OXLQjfL1fzUu6Zdl6891vsQ9kWBQdcgwsLSKTAEmYO7N36zJ3xpSbXlGrKsu3/f+IxXXB3e87BRuSD2ckqhB7jetadTOufnNUXVPg9TH85tFrd2xoMScmuH739vf0bch7Onj4we0asLrIu3Y0a9UOyJJFpuyqOXR08NQjXoe5BZGglOMZnejlqDuR3bd2v1maNpe5DEJlOIDybE+J+1pxE7DxhLWfxhWRllUQK+xBfsiPh8Sci3Wy7+/OX2V97S/832xFvLQnecOluwqkEkdUL+/xFLENXQ2Gpja2PRaMjyBhMMShDuncJJKKfjT4bNidTrtFcT6jgCavrfNz9CO4mneTndjNv4+jtkBlXdrHwmBMV+NOeDvITcN279detzAbfWVyZ9Qjj7/fkrJCop0i3QNUtTeW6BzJu5qY8XIQ87S/I5UzT9/sG90kngqOYVSL/Z2zMlns9ZhCSHbyA9ecGqiZ8NC0IPApeVURaxa/u13wV8iQeSjKm3ipcX5HIPBIygG8zZydwcI3tlduC+g4czt4HfZedWR0RN8rxgqLIGGww6xRJVCsaADZY63DUVT3oW8M0QeJiUswaGTMzBsuj+zGNLd709pQc5EAiKHnH8nQPvBo5/dXxn2mnFlOv416eOtkvbNb6LwAi/JNASoEncRnuQWTIB/G0dX0SuKOJNQZLDkmgh8AliatzirWLXORzeldBpBYDFYVpWr5+++Ju9SyZqIocCwaHuKd/vWzSCTLPO7z7HUOr315H0j7S/xb5h/FhmPNr/s3OrQgxd1mCCQQlSX1LphWywcJc/uV6HY73hQWLuPBhxwqsoi2BrxZm/Y/kKDBCuEw1YPLZj5rszNs/b9NoMDA7T0iAQ+2Yn5C3U9Htbmk2VDYX4AJw2XT3a084r4UT6WvAcwTuQgdq4VDhzJG2jVNZBsKcSOZt/mj8mOm7kn7q8ByqN2PzNznnzYNhEjtQtM6Nilqix1UIXGbpimC8VNVo8jyfps0nQiwSDEgSGIJIcBgzfDBx8TCxotBEJRV7qpisQFLV6+gZMHzcBRkaPuPLWd0unKUiSful+rx6IIdGBp8A5f3E+Z87ZA0nvJl/ImpF8IWvW9RPpS6+fylwLrofGTw3Q6K8hk3aYZNxmLVCQ4+u9SyL8guh9OithMO1ZwaGuFwDdsEUsfmhf5GiDuTkGNVo8j9+k087ciwqDrkHkcKe/tSmMOCCsLak06Ilrq7jFDe2Mw2uc3yl95LkFuqa++tGsuL++On2tXdqOxeKx7Wi/C4sNOXD1z9RN3btTypHr8tHUX3qc+SDIYUm0KA+J9NV4wPkojzsOhiD55p/mTyDTiHptZASHuidmZrBnIxf3fL7EA4KgXtc9fUFWThWqhTUeb9YvB7DBDoMShOhCeSiqFAYgI6ELi6umnF79Y+cCuMe2K/TsQA+M+gEDe/6qv9ulHRbIbVyoi4xsnAVO72AIwdEjkhr44rUCTq2/C5D9SQU7GokfFhv8Q8rFrE9REtagmmcoMHflxF7XA1XsOq/NP82f7cy0Rz1T0QV4PIat9m5hE+iPw+kbz5/LWwkDyXFgIJ0D8j32FnK0hi9BtYlzc7XT2wHsRYBBCUL1d09uqBQGgI2ltqRqFLiPj0zgKQfIgczJIdftALDXvH+6IHpx5O4GvojS22/iVkzefvtC1lq5coMAggCiwOqjmh2VmDs5LrjXXH+hkT5XyDRiv3rhrgB2SmIq3x2fL2Hw+BJGtwEoQFxY3XRE7bovGD+Weas/ug92GHQN4j45+BDaNEMTOWCUnBxI83fQSLCXA0CSpE7S7zTQtjRSrw3VikSQeAQw7iKJrYkciv8HT/BN0FZmf8kBdZJBzIBROhYkOZDXcoAccj3JQSKZC8LGMjVOH4cCDEoQhwD3fI/Jo37WloSyx5wd0ikUP7qJtvK7rMv3XjPks2gCjUkuA9c/chRyKHR1YqIbBBoamekVUWij7jPdENeIaascVr/uKz75IHKNuTlGZrAHGYQwuLl7+Nq5HzsH+/xlWHL03BlT918wgTIv3fusXdpu0K1NTVAb1QDdkbG+ulusEcF6zPdlsQST0EZdOUpCUFXHgmY60gc8Xb8uctXMl/3OGuepBg8MThAMHts+Y/uqRZM3zJ/uEux9xRSHre0bOUxQyKGdaJL6Jsdz35/73tDPA0IiasX3Oqoh9BOLWvVP/qEDpG0d2B3fxh/UfdTt2bH0BSSSefnkiR6HT/y5MGDxglEHjPZggwgGt+Y1NvITcuac/ubkGU1TrmHhfv94jfa6gcFj2RQGuYeNENrTqqYY7dL2l3icOisIgqxhCLKGYAgPA7+7eDR1Y51yzq+NvD6BjJSIqV1hQGH18lsUXIMhSOLh49Dcq35wzylQEYvvCEOQw4VzeUtZLMFYtE6HSLKoSkp810W/t/wfVHjhCKLArsU/PhJya317rEf6sn7pbVQztDx91leQSe9rLzRZiLLWrZu4dsH84F3Pu65edDyXwHH9xZS3oj8YuuQwUdt80IccVJrV4zmzA/c+73oaCnghCTIsYnh8yIzRO43SmPWQ50i3z8PiMCLt5EBbX4Hk0JO4Snk4vFnLtq3TF5ibY1AtAv5D3/BCEkSB6e9O/4DhzzwKg3ktBngahMViWv7vi7ilKz+ZsVpdHkrj11ZWP0c1BTk+XDcxduQIlz5nzf0P6DDdsmXL89ZBL5iamUIhLweff/LkKVxewA6FIBMMWmNG5r1QHYpBGhqsLqYjyGmQFdGC/8l38+K8hrvcY3hQH9jYWVUWZLGnPHkCd3sTdh/Iqa5h9WtYm27QM4/C3nSj0awef7cjbtakSd4aTeT/Q9/xQi7SQQg4Qse8m4XLinPKI7msmpHtyuxLYFIYGHmt+hs45AO/A4gjxeCwNY5M+8rAMe5Xpr8+Zr81iSBB6lLJrnO5+E/mmlIWb3JJEd8JgkzsYQjCyhG7UTrrhkIO5Ok4kWTO9vGh5U2c6PXPtGl+J83NMS9+ZQ4yDAmCoKFZ1IJpEIgcIAjCQxBkpWqcIGAYkkJQ56cZgqAWpo/jgEXpkEo7XuKy6wgQDFl2Je3v1I+gmvoCNfMU6sp41cRk2gk0mZ//B8NiyBLkP/wHQ+D/AwAA//9T60hiFg7lQwAAAABJRU5ErkJggg==;fontStyle=0;fontSize=24;" parent="1" vertex="1">
          <mxGeometry x="229.5" y="434.5" width="61" height="61" as="geometry" />
        </mxCell>
        <mxCell id="4X8OJqOi4j79PQFWo-uC-8" value="" style="shape=image;html=1;verticalLabelPosition=bottom;verticalAlign=top;imageAspect=1;aspect=fixed;image=data:image/png,iVBORw0KGgoAAAANSUhEUgAAAPcAAADwCAYAAADcifLrAAAABGdBTUEAALGPC/xhBQAAACBjSFJNAAB6JgAAgIQAAPoAAACA6AAAdTAAAOpgAAA6mAAAF3CculE8AAAABmJLR0QA/wD/AP+gvaeTAAA5GklEQVR42u19d3wU1fr+c2b7JpsO6RAgdEQSEkIoAmJBmopiwQLqtZJQxHL15/Viu7YroglFFLB3uOq1UASj9JIEQu8lvZfdbLbNnN8fK34vSpLd2dkyO/N8Pv4jm92Z95znvO95KyBDhgwZMmTIkCFDhgw/g8giCF4Mfqiqq0rlyKQUfQghsQDAUVBCUA5KTuj0qu3bXutilCUlk1uGCJCVWx9mh+VuSsldBDSzkzV2AHQbJVgVbrR/WfB+D4ssQZncMgIMQx+oiKFqmgNgDoBIHjuhDhRL7KzjrQPLujfKEpXJLcPfmnpudayDc8ynFLkA9B5/IYWRAqsZlf2VwsUplbKEZXLL8PV9Oqeqh4Ky8wjBAwC0XvgJK0A/UHDkxT1LE0tlicvkluFlZMypGsRRxxOg5HYASh9sETsI9zmhzL8K8xOOyisgk1uG0KTOLU/jKHkKoDf7ad04AD9SkOeK8xP2yisik1uGhxj6SMUoytAnAUwOoMf6mVL6bPGSpB3yCsnkluEWKEnPrZgMiqcBDA/YpwS2EYJXi/IS/yuvmUxuGR1hIWXS6ysmgeKfAIaKaBPt4wh9M7Uq8ZOvviKsvJAyuWX8joELD6nV9eG3EY48DYK+It5MhzhCXwuPTvy0YCFxyCsrk1uySM09oQmjITMB+gyA5OC5VeAsIWSxwWR9R856k8ktKYx8otZgMdvvpcCTAI0PWs8BUE2A5SqiXbQrL7pFXnmZ3EELj1NExbvL6kCxRKPi3t7xZnKDvBNkcgcNMh+pieMU9nmCpYiKFyZKsQqEfbU4v1uFvDNkcosWPkgRFSusIPRLsPT5oqXJJ2VxyOQWj/mdU3oZJeRx36WIinb72UG4z8EyLxctTTgiy0Mmd8AiAFJExQoOwI8cxzy/b2n8HlkcMrkDR1MHZoqoKEGBbaD0n8VLkjbJ0pDJ7a9tKIoUUTGT3JnamvA9QKgsEZnc3odIU0RFjP2U0EVyaqtMbq8hWFJERbxVTwF4LSwmfpWc2iqTWxAMfqwqRGXh/gbQxyiQJEvE7zhHQN5Uq9gVO95MbpPFIZPbbfxfiij9O4A4WSIBhxoAy4jN8mbhil7NsjhkcneKtNzKLoRyswHMBRAhSyTg0UIIlqmV3GtyaqtM7ktCThEVPUyUYhXHcq/tX55cLotDJjcyH67u6WAcc+UU0aCBDYR+wRH6wr63k0/I5JYg5BTRoAcHkDWUkIXFefGHZXJLgdSzK9Ipwd/lFFEpkRw/MoR7YW9e8m6Z3MFIajlFVPKQWkPHICe3nCL6x0ITIDyEQZOJk0kukdTW4CT3/6WILgSQLuWNHBuhwIMTDRgzWIuIEAaNRg4b97Xh3R+NaJA60QlKKOgbwZraGlTkvpAiylDy/yjQR+oaKrmLEvmPRCEp5q/+wtOVdsxe2oCaJjldGyCnCJDXTFqXn8zrbZXJHUCQU0QvjeU50cjsq2n33zfts+CJlXLex/8gqFJbRU1uOUW0faSnqvHu3JgOP8NR4PZXanGywi4L7GLUAljKKW2L9y3u0STWl2DE+NBpuZVd0nPKF7aZbecp6GKZ2JeQUS9154tPgCE9VbKw/oouAP7JONTn0maXv5X5SI0o95eokjeGzq3oxjnoAkK5v0FOEe0Q4XrXzu3oMIUsrPYRRgjmsMR+X9rs8pUsQ18vyUsqk8ktIC6kiFKWPkCInCLq0n2Lce3GpZC57QpCCMEcJSUPpeeWfcFyeHH/kqTjMrk90dS/p4iy1DGDAPI2dAOtFtfCXKY2uYORG1CDkrsUBHek51SsYSl5bv+S+EMyud3AkDnlIxgOT1FgEqicIsoHtS6GuGqa5KQWHmAAOl1B6M3pOeU/EMq9WLgkeZdM7o409YUUUU5OEfUUVY2ukba6Ue5Y5MntB8BkSpjJaTnlAZfaGgDkpmRoTuX1lHBPU0oz5f0iDE5X2kGpM+20PdhZihMVMrkFYvlIUHyXllO+jSH05cK8pB8kTe703IrRQPkblJJMUNn6FhKVjSxqmlnERrTvqiivY2Fqk81yoUlOKfk+Lad8m4Jwj/qzEs0vce6BCw+ph+ZWvAFKfwUlsrb2Eqo7Mc0rG+XUU2+SnKPM9rSciuenT6cKSZA7K7c+TFMX8QOl9FHI9dReRV1Lx+Stk/PKvQ0FAf3HqdiKr7Pnl+qCmtxjZ53R2qnlewBXyevufdR3Rm6jbJL7CDdY7Iqvxy6kyqAld3OoeiWA0fJaB4bmrm2WNbfvzHQ60VhXsSgoyZ2WW3Y3AWbIy+w7NLRwHv27DGFBgZyM2aUTg4rcI5+oNRBKXpWX17cw2zr+91arnJ3mawXOEZKXmntCEzTktpit8yBXbvkcbbaONbPFJmtuP/C7Zxh0s4KC3EMf2KuiIA/Ji+p7MJ0EIxgiByv8ZJ/nBAW5OVXcFQAS5BX1PTTqjsmrU8vk9pP2HpQxp2qQ6MlNQK6VF9M/GNa344YNA1PkRg3+AsexE0VPbkrIGHkpfY9RA7WYmNlx3sRtV4QgPVUjC8s/2vsKUZM7e36pjoAOkRfS93j6tnCoFB2b3QY9g2dnhMvC8s/FewQWUka05LY4lMMAqOWF9C1UCoIog2tLGx7CyALzDyLT6qv6efMHvJoOR0BHymvofUSFMoiPVqJruAKxkQwSoxWdau0LCNEyeOA6AyoaWFTUO1Bay8qZa74yzJ38OCxKcoNihLyEwqJrBIPBPTToFa9Er3gVUhOUSI5RguGpgBUM8OBEw0X/r9HIobyexclKOw6fs+HgWTuOVzjrw2UICI6OAPCuCMlNCUVFthxs8QwhWgYZfdRI76lGWm8N+iWpoPCyJR1pYBBpYDAoRYUbsp1NZmuaWBw8Z8ehczZsO2TFCbnXuRCqe6R3v95LSMutHEAod0heQX6EHjdYi7GDtRjeTwOdJrCOSEqBI6V2bDlowa8HLDhWJhOdLxScKn7P0q5VotLc8n3bPTAEGD1Ii6vSdBg9SAODLnAdXYQAA7qpMKCbCg9cZ8Dxcjs27WvDtzvNqGuWU1rdsswZx3AA34iK3JRipGySdw6DjsHV6TrcNFKPfsniSyohBOibpELfJBVmXW1AQYkF32xvReFJm7y4rvDEqQTFRW4CKjvTOkBcpAK3jQnB5Cw9IkODIxyl1xBMzNRhQoYOe49bsXa7GT8Xt8mOuI4x0nsc9AKGPlARQ9W0Bn5qo8QQYMpwPcYP0SE+kkGTieJomQ3f727z+/0wPITBHeNCcMvoEBj0wR9j3nfahnd/MmLnUf9Pxh07WIupWXoM6K6CSkFwvpbF+kIzvtraCtZ/0T9rmMkWUfB+D4s4yJ1TcQMF/Y8/JKVWEbw0MxJXXv7XqUM2O8WqDSa8t97oc22iVRHcOiYEM8aFIEZi87koBX47aMG7PxlxpNT3h2uIlsGT08MwMVN/yVbPBQcs+PvKBtj9RHDCkdGFSxO2Cv29Xtll8cMevQ/wT4z7b9cacPPokEu/rIIgo48GKbFK/HbAAs5HBM/ur8Vr90Xiugw99BrpZYQRAqTEKjF1uB7xUUocPm+H2UeNIqJCGbz9cBRGDdS228M9JVYJk4Wi5Ix//AQUOF61Z9E2wS1Ysd0jOttEU7I7H/55TboOL86MhMrLCjTawOCfd0Tg7Yej0CtersBSKghuyNbjo8diMCHD+81Aow0MFj8chctSOs+A7qzIxsv71iuKUHCHWmruCQ0o0v0hpLhIBeIjXWPsVWk6WOwUCz9u8oqJfs1QHR69MQxdwuX5hX9G1wgFXpoZiSsu02LR2hbUeSHdNUTL4LW/RWFgN9dKG5K7KEEI/OP8IxgBUAIQQX9dcM0dQfUZAPxSR2ixUrdM7cnD9MidGiboM+jUDP5+Szj+NTNSJnYnuDZdh48ej8G1Q4XVmioF8NxdERjS0/WaJbOF859XnyImY25Fn4A3yzk/meQA0NjK4US5ew6bu8eH4qGJwhC8d4IS782LwvTRIfBHByOOAhX1DrRa3NulpjYOlQ0OcH7IP+ka7tTiC6aFCXJNUimAF2dGYtxg98a47z/j3ygKywnPG2/Euf2ambZmmxlP3+p6jTIhwP3XhYIQYNkPLbx/9+o0HZ65PRyhPsoss7MUR887cLTMhrPVDpytduBEhR31LRzWPNMVIVrXl/Z8LYu7Xq9FpIFB7wQVkmMU6N9Njct7qJASpwLj5YOKEGDGuFD0jFfh2Q8bUc9zWIJaRfDi3ZEYP0TrLrHw5W+tfiU3cZJ7VQCTmxKgItufQlq7rRXD+qhxVZp7pt7fJoRCwQD5/3Wf4DOvCsUjkw1QKrzLgsoGFlsPWVB00obCE9Z2SRCide85Lny+0chh9zErdh8DsM0MAEiKUSI9VY1hfTUYNdC7abHD+2mwcn4MnvmgEQfP2d0mdnsh0M6war0Je477PQ4vuFIUdDdmzC3vy7E46m8pqVUET94cjhtG6N3+209/MWHxNy1gXVAeKgWw4KZwTG8n9CYE6o0sftlvQUGJFbuOdh6+IwT47fV46N0oNqltZjHhmWoXDgEGVwxyFrSMGKBx6zfcQauF4sXPmrChqM2lz4fqGLw4MxKjB7rn6rGzFEu/N+LDn02B4IKglDCxxXnxtQGpuTk2MOq3bXaKFz5rQslZGx6eZHDLsTVjXChiwhV48bNmtFraZ7hGRfDSLPfvdq7i4Fk7vttpxk9722C2um6mhmiI211NQ3WMS57iVguHn/aa8dNeM2IjFLhxpB5Ts/SIjRTWcRiiJXjurgho1AT/3Wnu8LNJMQr8a1YkBnZ3r+HPsTIbFq01Yu8JKwIEBJTLBvBdQJKbACMDKY342x1mbD1kwYMTDZg6XO9yd5Jr0nVIiVXiuY+bcPQS6apaFcHL9zhDOcIe3cCOo1Z8vNmEXTzTNSMNCredeVoVQYiGwOSGI666icXyH4xYvcGEiZl63DZGj9QE4WL5aiXBM7eFQ6si+GpL6yUtlKvSdHj85jBEG1w/XBpNHD7e3IpPNhv9lpHWHhhnvPs7AfkoHNJzyo8A6IcARN8kFR6eZMDoQa4T0s5S7Dtlh9nKgRAg/7sWVNRzePneCIweKCyx9xyzYvVGE3Yd80yT9E1W4dMnurj9dzc+X4PztQ7ev6tSADeMCMHd40OQEC2czuA44K1vW/DxZhNGDtDiwYkGKBiK8FDXcxourOXXW1qxaoMJDYE63ZRga1Fe4uiAI/ew2WXRDkJqEeAztycN02P2FANiI9w3JU1tHE5XsRjcQzgNVVbnwLIfjFi3t02Q70tPVePduTFu/90dr9Ze0kpxF3oNg9vH6jFzfChCBHK+UQpsO2xBdn8try40h87b8caaZuw/HfBlqNYWYg4/mddbkLuCYEesgyEjQBHwJdw/7DZjx2ELcqaGYcpwvVthnlAdg8E9hNmwNjvFpwUmrNrQ2uHd3u37Ks/cdaGIaLZyWLnehM37LVgwLRzZ/T3PZyLE2YfdXbRaKFZvMOLjzaaAM8Hbc+UYOF06gB2CmPkC3hdFU7/dYOLw/KdNePSdBlQ1+n7VT1Xa8XB+PfK+MwpK7AvOKH4aV9hz+UyVA7nL6vHSF81oavW9Gbz/jB2zFtVi9UbREPv3ezcRLCQmGLmJn5NX+GDLIQtmvlGH7Ud84zGlFFiztRX3LKrHPi+ZiHotT82tZbzyvmu3tuK+N+tw6JzNZzL+7FcTHsqrw+lKh9i2JKiAPBJkRYc+sFcFYChEiLpmFo++U4+1272boWS2Uvzr82b864tmwbX1xSTla857793PVjvw4NsNWLut1av52xwHLFrbgn9/3QKbXaTtXwhGOZPBAoTcVBM3FIAeIoWdBV75ohkHvJRfXFHvQM5S7x8gTvOar+b2rrukzcbhpc+b8dIXzV4j3nc7zfi0wARRgyJmyJyy1IAhtxhN8j+D5YBN+82Cf+/JCuf92lee2hAN8emh4C7+s60VT61uhKlNeOtl22ErggEMFebeLYzmDpLJIofOCVsZVXLGjtlLG1BW5zuPDt+7s17ru0BHwQEL5r3TgLoW4eTiDFM6goLcoGREwJAbYLKDQaZFJ614/rMmWAUyG89W22G2+Pbux5ekIT5u/1TbzKK0Vhhy17WwmL+iEWerg2Y4QmBo7qG553sBND5YpPrjHjPOVgujAaYO12P1o9G4rIfvBp2GBOid+39xXYYOqx/tgrRewshl11Erik5aEUTonz2/NMrv5ObABNVkkduuCEXfJOEy0FITVFiRG437Jxig8EFjFv5xbu9rboOewZPTw/H83ZEujxh27bDQY1hfTTBtQ2JzkGy/k5tQBA254yIVuPfaUMG/V60ieGiSActzYpDS1buDVXmb5V7W3Gm91Fg5Lxq3XBEiePMHhgHmXh/m9YaXvgQnAK+EOD6DZrLIw5MNiPDiMPr0VDXemx+DqVneixry1txeIrdC4Wxmkf9ItFc7wPZLVuG2saFBQ24C4l9yD5l3JgIgA4JBmJl9NJiY4f1QfWQog2fviMALd0d6ZYxQIN25k7sosOSRaMy5Pgxatffv9PddE4qEqKBR35kDFx5S+43cxKHNhvd6n/sUj0wy8B5g77bciLNP9nvzY5CeKtxdkWH454gL7S2/PluPDxZ0QWYf392FDXoGf5tgCBZy67S1YWn+I3eQjOm9YpAWg3uqff67KV2VWJYThfk3hkGt9FyzRYQooFbxLxxRCMDvUJ3TMnl2RgTCQ3x/7l+XoUOPWGVQsJvz0DT3SPoUweFMu/NK/93VlAqCO68MxdKcKKR4uCnDQvgfEGoVQXiIZyZtRm81Pn48BtcP918mslpFcNuYkKAgt6eTSHiTe+xCqiSgGWIX4Ij+Wgztrfb7c6T10mD1ozG4IZs/MTwt2wzneTiolEDOVAOWzI5Gchf/a81JWXokRov/7k1BRvmF3M11lUMAiN49eeeV/E55o5nDU6sbUSvgKJwwPYN/zIjAa/dF8XK2hXpYtskn1t0rXol35nTBPVcL29r5TLUDr3zJb9STTk0wY5z4PecEiM18uLqnz8nNBIFJfnlPNe/kh08KTNhQ1IY5y+pRWitsTvP4IVq8vyAGw/u5V78Z4qHmDtW59/fTR4dg1fwYXN5D2BBX8UkbHnyrDl9tMaOghN/Y6qnD9YgOE7+v18GwI31O7mC4b0/M1PEa+1NW58Anm50VZMfLHXgkvx5HSoWt+kqKUeKthyIx5/owl51kvRM9I1k3F03q6DAGr90Xhb/fIvyElYISC+Ysb/hj4MI7Pxl55frrNQQThupET24CzvfkJqCiLhbRaxiMH8Jv8d/faLqol3hFA4ucJQ0edy79M5QKgplXheLdOdHondA58bL6eRZ2cqXf2aiBWnywoIvbI3tcwX+2t+LJVQ0XyfZEuR3f7OBXinvtUD2CgN2+JfeQeZUpFEgSs8yuHKLlda8trXXg+11/3WxNrRzmv9OA9UVtgj/roBQ1Vs6LwS1XtO8fuCFb79ZUy0vhikFaXJN+6QNPqyJYMC0Mbz4QhXiBE0UoBd5dZ8KLnzXDcQkXxmcFJl7ae2B3lUuzuQOc3QP5FpHwWqXEjAUTAdwkZpHlTg3j5dldtcHUbv8zlnOalaF6IvimUqsIRg3U4rIUNSob2T8aO4bpGdx9VQhyp4RB4aFD60KXUZWS4HyNA2YrhUZFMCFDj4V3RmDMYJ3g00vtLMXrX7d0ONKnxUzRrasSfXhcOyx2iu3ibuJAHJzi16rdb5x02/Ljd98Wd/JKchcFhvV1n3wNRg7fdmIishzw769bUN9M8chk4bPeRgzQILu/BjVNLIxtHBKjldAJ2LlUqyZ44DoD7rvWgJomFpGhjNdSR1stFM9/0oSf93Vu7XzxqxkTM/Ruy/PqdC3yvm2BRaw91fBHsthPvrpzi5rcIwdoeYVt/rvbDKOL7YFWbzQK2vjhzxo2NlKB1ASVoMS+yKRjgPgohdeIXW9kMf+depeIDQCHz9uwk8eIpWiDAsP6ibwclGenI7fJnZVbHwZgkJhlxSffmVJgo5v36f/uNOOx9xrR3MpBxv+hot6BucsaUHjSvQjDBp7+jMzeIr93E5r1e4dh75LbAetwvnf1QIBGRZCe6v5iHzxnx5Hz7rfx2X7Ygpyl9X4ZfhCIOFZmx0N59ThS6r4sN+238DooM/qIvpGDnlMnXO51clNKRV2/ndFbgzC9+7eRn4v5d0Y9fN6Oh/PqcbLCLmliF56w4uH8epTX8zvozBYOvx5wP6klNUHlcd6+v8EnaYzPnVvU9+2hfdzX2iwHbNpn8eh3z9c6MHtJgxiG0XkF6wrbkLusweMrymYe68AQ+LT01DvXbi+Te/p0qgAwTMxCSu/l/iIfK7OjssFzs7quhUXusgZe2kfM+KzAhGc/bBTEubj7uNVlp+afLTZxg3qX3GfiKgYDCBPtfVtJkBrvvnlWKGBnzVYLh8dXNuA/281BT2qOA9750Yh/r2kBK5BP0WqnKD7lvvXTL1n0Nd4JQ+ZVpniN3JzITfI+SfxCR4UnhDWlWRZ46fMmrPjJCI4GJ7FtDopXvmzGip+Mgn83nzbGCdFKdBF5IQnDuqe93XpbIvLJIj15aG2LjaLopPD3ZEp/12pfN8PBBhfDjWYOj73XiDXbvDMbbe9x99eDIUBqorhDYu7euxlvfnmgoRcPcp+pdnh1KucXv7Xi6feb0GoJDoLXtbCY804Dth3ynl/hWJkdjSaOx/qLu4EDcTNS5TK5L3+oNBFAN3Frbvdzk09Vej98tWlfG55c1SDesbO/o7aZxYNv16PEyxEBjjoPXbfXP04FkeOyoQ+cChec3AolM0rskunWxf2T21fD5XYcsSLvO2Hvp82tHCrr2Xb/M5qFs0goBRZ+3CTYKKZOD10eOQM9xE9uBhpdlqsfVrqxeCMIEbFUCBAZyoPclb6bHPnFFhNuHatHUrTnnt2qRhb3v1WHig4SRnrGK7FiTowg/dP3neaX+80XfNalS7j4O7NwzpDYBkE1NyHivm9Hhyl4NRCsafJd2ijLgleK659hsVH886OmDol9gSAvftYkiEPv8HnfJufwyXKLDGV81pvea/duN/xeLr3q4MeqQgBcLmahxPAIg3AUPs8JZwQwj976pgV7T7imRQtKLHhvvcnj39SofGvW8ZntrVUTdA0XeVdUiuFjF1KlYORWWhxZ4Fn7HSiINLi/qC2tnE8rutRKgkHdPbsXrt3Wii+3uBeCem+dET8Xe9ZBJqO3xidTTC+gsoHllSMQJf6miSHG2srBgpGbBEEzRD73Sj7awRPMujoUsZH8GVJ00obX17S4rwwo8MJnzThWxv9KkBKrxKyrfDfKp8XMoZlHOCwyRPz9zDniWjKLSzueEiL6SZ56HqnFFh9dIw06BjlTDLj/Ov7kqKxn8cwHjbzDaaY2Ds982MgrfnwBD00yYP6NYT5rKdzMw9vvjxFH/rp3d25qL6QM6iqGQ4JgvZgbqlUTZPTWIKuvGtcM1SEmzDON8ttBC6o9dP6drnRg11ErJmTw6wrLEOdopuuz9fjtoAW7j9qw44jljzbFQoOPI5AJirGVGCUIuYfWlQ2kYCIkSW6BrfL4KAWy+2uR1kuN4f00iDIIt9P6dxMmtXJAN89jwQYdg0mZekzK1IPlgCPnbdh93Ir9p23YftgqWD69g8f60OBIBEzMfKQ8ec/SxFKPyM2BjCRBIA0+i+rwcCMwDDCouwqjB2mR1kuDwT3UgkzSvBT6Jilh0DG8yiH/2DExSiQJPOtLwThbMw/6vRtsRQOLfadsKD5lQ0FJGxo80Op2CTe3cThD0597RG4SJJM8+fCUT6fghGglhvfTYFgfNTL6aARJEHEFGpWznfL2I/xzugenqMF4+SRPiFIgIUqHiZk6PHZTGPafsWP3MQt2H7Pi0Dn3HHp8Duwg0dwX8k48IzeAEZAoXJmdxTBAn0QVsvtrMHKAFpelqAQdiOcOBnZXeUTuy1J8m56pUREM66PGsD5qYIozvFV8yoZthyzYccTaqcOMj5M0iOrvOlW6HZI7a251rJ119AwGSVjtwpG7SziD7P5aZPXRIKOPGjEBkhgxsLtn9+4B3fxbEhkfpUD871q9zUZRfNKGvSes2HnUeskwnV7r/iHKBU8B/eCs3PqwXXnRLbzIbWPZUSRIJMHnbve/jRT7JauQ1VeDzD4aDO2thloZeJK5LEUFhnF2QHH/IGPQOzFw8pR0aoIRAzQYMUCDOdc7Q307jlqx57iT7C1mjtfI4gZj0LSZVthgGQbgZ17kDpb7NgA0Gt33voRoGDx/ZwSG9tUgLiLwkx8iQhkM7KbGgbPuB+jTeqq9NoBAEK0ercC0kXpMG6mH2UJRdMqGEB7kDqYe8oRiJG9yU2BksGju6iYOlMKtWVcMA0zKEtekyMUPRWHd3jZ8tMnkUl58dBiDm0eF4PYxIaJ5R72WYNRAfoMlgql/fGfNU9rd6tnzS3VWO9MEQB0swih4LQ4GHQMpoNVC8e1OMz7ZfGmSd+uixK1jQjA5S8fLvBUjmls5XPn3KgQRu429ahIiv/qKsG5pbotNkUkIVQfT4ta3cJIhd4iWYMbYENyQrcfGojZ8WtCKkxV2JHdR4JYrQjFthD6gzXDv+F2CLDBOYDgZVz4IwH63yM0AI4PFrzhmsBbD+2oQbWAgNeg1BNdn63Fdhg77z9gxpJcKKgWBFBEfpcRr90Vh+2ELvtkRHK2lGUpGuk1uSoLDmTZjbCgW3BQGqUOtIsjso5a0DLRqgvFDtBg/xDmD/KstraJ/p9/bjS9tR0FfmtoUNFvsL35Dth65Uw2QIePPePTGMNw+JlT0V5OOIlqXfLO03MoBhHKHxPSS0WEK9IpXIiVWgQHJagzppUZyF6W8i2V0CJOFw4EzdhwpteF0pQNldSwqGljUt4jnfu4gNLkkL6nMJbOc4egIGiAHmlpJ0DdJhegwBWIjGOg0BHoNQUQog67hSnSNYBAboUBEqHjv08Y2DmerHThX7UBZPQubgyIxWoGxg7WINgRufL3kjB2b95tR2+x0VCZGK9A9TokeXZVIiFZ6rUhGSIRqGWT31yC7/8WhtQYji9pmDtVNLIxtHExmCqOFQ0MLh+omDkdKbagOkLCaksMIAF+6RG7KY+iYoKYGAa4dqsOEDD3SeqmCJlRjtlKcq3HgbJUDZ2vsOFfD4kyVA6er7JfMKlv+vRH/mBGBKy7TBty7vPOjEe+uM7ZbiBGuZ9A7UYXusUr0iFWie1enVRUXqRRFTXWUQYEogwJ9ky6db89xwNEyO37Y04Y1W0x+rVCjICMvRe5L6uf0nPLjAHr740H1GgYv3B2BsYO1oiWxxUZRWvc7iaud/52rdeB4md3tgXh6DYMPFkTzGqjgLWzaZ8ETKxt4koZBn0QVunVVIKWrk/wpsUrERigg1tbZe45Z8fjKRo/KbT1EYVF+Ykan5B76QEUMVdMadJDg4k08f1cEJg0TR1aYzUFRWuvAuWr2D018rtpJYqtDuEDiHeNC8Oi08IB57znLGrDtsLDjgrpGKJCa4NTwTi2vQvdYhWi6la4vasPTqxv9du22cqrIQ0u7mjo2y9UY5S9iD+6hxnWZgUlsq51i1zErzlQ5cL7GgdNVDpyqtPtkxtfpqsBy7pyrEX7EUk0Ti5omFtsPX9ySOSFaiZ5xTtO+W1clxg/RBmQftGvSdPh0cysOnrP54+eVWqUtE8AvHZKbUjoCfjKPsvpqvN4sgC9UCoJl3xtxvNzu89/WBtgUnPAQBmV1vjlwKuodqKh3YOshIC5KgUnDdAG5PwgB0nur/UVucM4iko7JDT9Wghl0RKgXxYlyO46V2XGq0o5QHYNxg7VITeDPEoYBpgzX4Y01vid3v+TAYndGb43bXVOEwORhOl7DD2wOCrWSgFKnv+C3gxawHEXPOCX6J6uR1kvNa277Xw9h/2km4nSqoV1yp+ae0IAi3V8PeL6WvzawsxSFJ2z4ZX8bdh61oazu4llS760zYtxgHUwWDm02ihVzYtwO1UwYqsey700wW33rOBk9KLCci9cO1eGDn00+/U2FApjMwxfDUeCeRXVwsECYnlxy1rpey2B4Xw3GDtZi9CDNRXX87l2fHP5bFIoR06dTxf8WkVxE7nBOO4QS+G0nbd7XhvuvC3W5zS/HOQfQFZS0YdN+C6oa2j8cHCyw8X+mauw9YUVWX/fKBqMMDCZk6LB2m+/SFrP7a9oNx/gLfZNUGN5P49PBf2MG6XglJZWctuFoacdWhtnCYfP+Nmze3wa9hsEVl2kxbrAWIwdqoHMxg+1EuR2/HbT4c1nCTnWp7APgyCXJTYnicn92mWowcXjxs2b8a1Zkh0P7Gk0cNhS24ZsdZt534A1FFrfJDQC3XqHHtztbBW973K4pGqD15FOG631K7hnj+NWbb3RzTJLZymHdXjPW7TUjNkKBKcN1mJipR/eu7R8slQ0snv240e/z1QnDDWqX3IQi2d+ZaVsOWnD/4jrcc40B2f3Vf3TbKK934MBZO349YMFvByyw2DwT5KbiNsy7weB2CWhqggpTs/T4z3bvVxXFRSow9rLAjPePG6xFXKTCJ80Pxg529np3F2026ja5/xfVTSzeW2fCyvUmZPbRYMwgLQZ2VyO5qwIaFUFlvQNbDlnxyWaT1wYvuHnx7tbunRuEBkQw9WiZHU+uaoBGRRAXqYDJQgXP9TW2cSjYb8GU4e5rxjuvDMUPu9tgc3j3pJ463POaa4uN4pNfTNhYbEFprQM9YpWYnKXH9NEhHqWHalQEU7L0eHed0ev74a7xobz+bushC+pbPCcdpcDuY1bsPmZFIINSclGVFHOxWU4DKqBqtTvTNb2VxL+ukN+pnhKrxPXZ3jWXlQpgoodhH5ud4rH3GrH0eyNOlNthsVEcKbXj9a+b8exHjbwaKf4vJmXpoPRyjsnV6ToM6cmvVHX93jZIC9TePrmBeimJYudR54gbPrjv2lCvDrwbd7kOyTGeVbV9vNmEHe30MV+3tw0fbvLM450co8S4y70Xd9ZrGDw8iV/J7pFSOwoOWCTGbdLULrkBckpiRx0+LeDn+e4SrsDsyd5rAjHVQ0daZQOLDzd1/G4r15tQVu9Z+GaKF1OF7702pENHVkf4rKA1aKaLuAoGON4uuRmwu6VG7k372nDwLD/tPWW4HiMHCO/w6hmvRFY/jUffsXqjqdNCBrOVw/sbPQvrZffXoHei8KG6nnFK3DaG3137XI0DGwrNUtvKHMsw+9old2Fet1NS096UAp//ym+DMwSYc71B8JLUG4brPXJ2HSuz45sdrr3Tdztbcfg8/2wzhgGmZAlrmqsUwNO3RbgcY76U1pbckEBCC4vz4ms7MMsBdDJcLBixvrANJ3jGy1MTVHjsZuHMc72GwYRMz8iy4iejy3F4lnV+3hMT9roMPfQa4Q64BycZeIW+AGcu+n93Sk5rAxSfXcJMvxgOwi0HiF1KcuGo8/7J+96ZpccNAnnPr83QedR9ZccRKwpK3HMkbTlowbbD/MM8FzL3hMCIAVrcdWUo779/b70JFjuVGrVNdpZ9v1NyO3sx0XekJp2NxW341QPv6vwbwwRJE/XEkeZgKZb/wC/u/M6PRthZ/qSYIkAmXXyUAk/fGs57SmrhSRu+k6DWJhSvH1jWvbFTcgOARsX9EyCVUhPSW9+2oJVnN41QHYPX74tEYjR/rZuWqvZojO6Pe9p4lxwePm/Dj7v5x4UH91AhrRd/J6Bew+ClmZGIj+InPztLkf9di+Q85AQ4Djv59yX9IZc07d5MbmAonQmAk5KgzlU7eIfGACAxRomXZkUhlOdUk6lZet6thsxWilUbPMsWW7HO6FGroKnD+ZnmCgXw3F0RuLwn/77q3+wwo+SMDRKDjQO5o3BFgtllcgPA3iWJGwH6rNSk9f5GE85W84/9XpaiwvN3RUDlpgKKMjC4agj/e+sXv5lQWuuZi7iqgcWXv/E/3K4aokOUm1NdCAEevykcV17OP6RY18JixQ9GSA8ktzg/YW97/9rhShTlJ/4L5K9dFYMZFjvF61+3wOHB/XPMZVq8OCsSajeK9ycP0/EaJg84WxR9+LMwZagfbW7l3bJXryVu3b0JARbcFIbpo/lPGKUUWLS2BQ0mTlq0BllelJ+woqPPMJ1d1a2s6j6AHJCS4HYetWD1Rs9SM68aosOr90RCp2Zc2uSeOKQ+/LkVLWZhNrfRzOF9D9596nC9S62yCAEWTHNO/fAE/9neivWFUsshx45m0jqvsw91uvMOLe1q4pRkKgjqpCS9d9cZPa4CuuIyLV69N7LTJJdRA7W8WxefrLDj663CdkVZu72Vd518SqwSozrpHKNQAE/fGo7bx3pG7JMVdrz1jdTMcVJJwd58Mq+31WNyA8C+xfFnKXA7AMnk/bAs8MKnTajzsCJt5EANluVGITFG0aG244sV64RviO9ggZUelHJ2FM4L0TF4ZVYUpo0M8egZLTaKl79shskiKXPcSih7Y3F+twpXPuyy96M4L/FnAE9LSZIVDSxe+aLF49LIAd3UeG9uDDL7/DVUlNxFgVED+YWQ9hy3YVOxd0zSn/dZeHdaGTVIg+Qufz3MesYrsWpeNK4c4nk+/js/GrHvlLS844SSnMIlybtc/bxbPt3K3W9sjx9m7AtgkFQEerbaAQcHDOvrWSFHiJbBVWk6WO24KBZ91/hQZPR2/7s5Dvjnx41e7YRSVsdiSpbe7XbTCobAbKXYc/z/3nP8EB1evTcKiTGeD2dcu60V+f+VnHc8v2hJ4kvu/AHj7tmhUXH3AiiUklRXbzDii18990Zr1QSPTgvDogeiERupgEZJMJHnEIb1RW1e11wlZ2z4aS+/jK/Jw/TQqAh0agbzbwzDK/dGuh0muxS2HLLgta+aJcVqCmyzxjQtcFvT8/mxtNkV3QmhewB0kYqAFQrg5VlRGD9EmBLPuhYWBSVW3DzKfXK32SjueLUW52q830o3uYsCnz7ZtcOGle3hg59NGD1QI9ics0Pn7Xgkvx6mNknds0sdDkVGyfK4Grf3LJ9fq9rzRnP8sEcLAXKH+9pfpKcnBbYesmJwTzUSoj3vLaTXMBjQjd+m//xX34V/WswUBi2DITyqtIb0VCNSoBHElfUs5q+oR12LpIht4Tjmuv3L4k/w+WPexCzKT9pMKX1SSpJus3F4alUDDp71X9FcvZHFhxt9OxDgw80m1Db7L1Bygdi+GmEUMAqFYPa+pfF7+P69R1q3eEnSIgCrpSTwBhOHOcvrsfe4fzy1H25q9Xk2VpOJ67Rlk9ds0joH5iyvx4kKh6SIDUIXF+clrvLkKzw2qcNMtkfgvH9LBs2tHOavaMCWQ75twHe+xoGvf/MPyb7e0sq7oQVfnKtxYO6yBv+O6fELsbGVWKue8PRrPCZ3wfs9LAqW3ASgRkryN1s5PLGyERuKfJf6uOyHFr81IrA5KFZu8N114ES5HTlL633iNAwwnKNgphWuyPD4JBXE21GxZ1FL4rAFOyhwp1DfKQawHFBwwAKDjsHA7mre5Zqu/pbJQqFWEVQ1cbA7fEfyUC2DUQO1GNpbjb5JKii8PGd551ErHn+vATVNnNSIbQFDJhTnJZwUxgAQEGk55bkEeBsSxNThejx2UzhCtN6fx2SycNh/yo4DZ204fN6O/WdsgoaHwvQM+ndTYUA3FTJ6a3B5TzXvZoXugFLg0wIT8r5tkV6DQ+c9+56ivKT3hbPuBUZabvm7hOJvUiT4oO4qPH93JO9e27xNZjtFaZ0DpXUszlU7UN3Eor6FQ6ORQ7OZBaUEpjbn6GKGASJCGOg0BGolQXSYArERDGIjFYiLVKJnnALduyp5tzrii1YLxWtfN+P7XWZIEhSvFy1JfELQs0LoZ0zNPaEx0JDfCOgwKa5RVCiDZ++MwOiBWshwDedrHfjHB404eM4uTQEQbAqLTphQsJA4AprcADB03tl46lDtBZAgybUiwLSRIZg92YDwEEZmbzvgqHOs0aK1zWg0cdIUAsVZYieZhSsS6oQ/M7yEtNll2YSQXwBopLp5E6IVmHt9OK5Kk7X4n1Fe58Dra5qx5aBVymJoI5SMKlySUOQdg8CLSMspe4iALJP6Rp6Yqcec6w3oEq6QPKlZDliz1VnV1WrhpCwKCuD2ovzEL7z1A161GYvzk5YDdIXUN/SPe8w4UmqHDGD3cSte/apZ6sQGBX3Fm8T2OrkBgNiqcgBskfJC9ohVYUR/jcxsAMP6CFclJmKVvTG1OvEf3v4dr5O7cEWGXcGpbiFAmVQXMyXO96GlQIWCAZJipHs9IcAZFaW3f/UVYUVPbgDYs7RrFSV0OgBJek92HbOizUplZgNoauWw47BFqq9vIoxi6u4lSfW++DGfxWmK8pJ2UkIfkOKKmi0cml1sPWwUaSMCV/vMWWxUmtlnACWg9+59O+6gr37Qp0HY4rykDwEsldqqDuquRteIzk1Rm4PiwbfrMeuNOny4yYTzAV400drGYWNxG575oAn3La6DzYWiltgIBS5LUUuP2SAvFuYnfeXL31T6+iWJrXIeVccNBMgYqSzs9NGuNRn8ZrsZx8qcXvUDZ214+9sWpKdqMLyfGumpGgzopoJa6d+7e1mdA0UnbdhzzIoth6wXWRpfb23FjHEd9yInBLh5lB4Hzkqqc+n61Or454p9f7/3PbLmVsfaWcceAMnBvqq94pX4+PEuHY4WKiixYOV6Iw6f7zhcFhHKILOPBkN6qJGaqEKveCUiQ71nfFntFGerHThV6cDh8zYUnrTheFnHzziwuxr3X2fA6A7aNVvtFHe+XovTlcFfzkmA46zSlrVvcY8mSIHcAJCRW57GUWwFoA/mxX35nkhck97+gL/j5XbMeqMOVh512oQAPeNU6J2gRFIXBWIjlIgJZ9A1XIGuEQz0GgbaDqq5OA5oaePQaGRR08yhtplFXQuHinoWpyvtOFpm5+UIVKsIludG4/Ie7Zvf6wvb8PT7jcFuixtZMNn7l8Qf8tPB4j+k51TcCdCPgnVts/tr8fbDUe2a5BwHPLKkHnuOey+IoNcQGHQM9BoCtYrAYqNgOaDFzMHUxoHzkhN/5ADnu7d7sFAgd2kDdh4NWs85pSDTi/MT1vjrAfxa1VCUn/AxQN8KxpVVqwjm3WDo8K6965jVq8QGnHO7q5tYnKl24FiZHedqHCirc6DF7D1iA8C2wxYUnmz/Xs0QYP6NBmhUQRv/f86fxPY7uQEgLCbxMVDyS7Ct7N3jQ5Ca0HEm1rc7g7t2+dsdHb9faoIKd18VEnTvTQi+LYpJeMHfz+F3chcsJA6Nmr0ZoKeDZXG7d1Xi7vGGDj9T3cjil/3BPXp2Y1EbapvYTg5BA3rGKYPnpSmOwWqZiYWEkzy5AWDHm8kNlGAaANGrMgUDPDG983ZLBSUWOII8mcPmoPilxNKpT+CJ6RFQKIKC2EbKMNMKV/QKiHlHAdNJoDgvaT8BuV/s6zvzagOG9+u8SGTTPmmkYP7swntm9lHj3msMYn9VDqAzivPiDwfKAwVUm5DC/IRPAfxbrKvbN0mF+67pfKD86Uo7ik5JI82+6KQVZ6o6L3e95+pQDEgWcbUYIf8oWpL0fSA9UsD1ACqKSXgSoD+JbW0ZAjw6LbzDuPIF/FJiAZVIHQmlwOb9nWtvjYpgwc3hUIizK9U3RXnxLwfcngw4MS0knJ1l7wDIKTGt7oQMPTJ6u5YzvfWQtIrjdhxx7X2H9FTzHmnsRxxREe1MgFCZ3C7gwLLujeAwBUCLWFb4ltGuhXQqG1mp5VVj/2kbqhtd8x5OHy2q0FgjOG7qrrzogNynAWsEFS1NOAJKZsHZayqg0SdRhUEprt0Xdx6xSsYkvwCOAjuOuqa9B3RToU+iKO7eHEO5O4uWJp8M1AcM6BtO0ZKE/1DQVwJ9lXvFq1weJVRQIs1GBZtdjA4QAnTrKoq491N7lyT/GMgPGPDui+KYxGcA8kNAP6SLxC6rd2DHUWmSe+cxC0prXasC4wK+XwVdW5Sf8HqgP2Xg+yYXEk5FNDMAHAnURzxVaXfJ1P7yVzNYaXYhAcsCn//a+fhhlgNOVARwp1iCEodWeXcgOtDER24Au/KiWwjINIA0B+LzHS+zo+hUx06yY2V2fLW1FVLGmq2tONTJyKDfDriu4X2ur4EGAnZayb/jRLGQookqFuYnHOUonQkgII22179uQl3LpdXyuRoHnn6/0aU2RMEMOws8tboBJ8rt7cpp0drmQH18lnDkjsK8bqIJ0Yoqo7dqz6JjccMeUxIg4Fo0NRg5bD1kRUQIg64RCqiVBJUNDny304znPmlCVSMLGYCxjeKnQgusdg4GHQOVgqCmicWPe9vw3CdNqGkOzAs3pfTx4qWJouo9IMJiWkrSc8q/AshNAStUAujUBGa5nXFQgAKfFucn3iG25xZhsh+hOr3mHgCHA3YzUMjEDhIQYB9jE2dBk2jbYFw+u6yPgpBdACLkLSjDS6h3QJFZkh93RowPL9rh0fuXJB0HyG0A5MusDG/AQRg6XazEFjW5AaAoP2E9oXhe3ocyBDdpCVlQ+HaSqNt/BUF3OkrScyq/AOh0eUvKEIYV9KOivKS7xf4aTDCshJVT3gvQg/KulCEAijVK+mBQnFHBsiKDc6p6KMHuARAt708ZvGxAoFrJIXPP0sTSYHgfJlgWpiQ/7gxDcTtkB5sMfnrODsLcGizEDipyA8DeJYkbCSX/kDeqDPdNWDqvOC/+1+B6p+Azrkh6TsVnAG6Vt6wM10hAPizMT5gZbO/FBOFSUY2KuwdAkbxtZbiAnc2k9YHgPLSCFGmzK7oThu4FRYy8f2W0gyoHoZkleUllwfhyTLCuWvGShHOUo7cBcMh7WMYl9JodhNwSrMQOanI7CZ60iQBPyRtZxiWQU5SXsCW4fQkSQPrs8tUgmCXvZxnOTU+WF+YnPBzs78lIYTHDWm0PA9grb2sZAHY0k9Z50jjEJIKhcyu6UZbuBdBF3t+S1dmVFI6M4vxuFVJ4W0Yqy1r4VsJ5wpFpAGzyJpckrISyN0qF2JIiNwAULk3YSkCekPe5BHU2JTmFS5J3Scu3IEGkzy5fCYJ75S0vGeQX5SfmSu2lGSmudFirbTYF2S3v+eAHBbZZY5oWSNJakeqiD513Np46VHsBJMgUCFqUOhyKjJLlcTVSfHlGqqteuDilkmMwHbKDLVhh4TjmJqkSW9LkBoB9bydup6BzZR4EozVO7t+3NH6PlIXASH0XFOcnLaegL8t8CCJmUzxVlJ/wsdTlQOSt4ETa7PInCcHLskxEzmuKp4qXJL4qi0LeyBcTPKfiJgL6DuQ+bGLcypXgcG/R0oR1sixks/wSJnrCGgWnGgTgXci92MQCGwhdrFGxg2Riy5rbJQyZV5nC2Nn7Qch0AL1liQTczi0BpV8SpWNV4eKUSlkgMrl5YXBOVQ8FuHRCaE8CRIOScAqOcV/YxAoCsyxR98EBVkJpE0PpMZbQfVLKEZchQ4YMGTJkyJAhQ4Zo8f8B44ALxkMKVPQAAAAldEVYdGRhdGU6Y3JlYXRlADIwMjMtMDItMDVUMTk6Mzg6NTArMDA6MDDjRtNaAAAAJXRFWHRkYXRlOm1vZGlmeQAyMDIzLTAyLTA1VDE5OjM4OjUwKzAwOjAwkhtr5gAAAABJRU5ErkJggg==;fontStyle=0" parent="1" vertex="1">
          <mxGeometry x="975.5" y="335" width="63" height="61" as="geometry" />
        </mxCell>
        <mxCell id="4X8OJqOi4j79PQFWo-uC-10" value="Tekton" style="text;html=1;align=center;verticalAlign=middle;whiteSpace=wrap;rounded=0;fontSize=24;fontStyle=0" parent="1" vertex="1">
          <mxGeometry x="220.5" y="505.5" width="70" height="40" as="geometry" />
        </mxCell>
        <mxCell id="4X8OJqOi4j79PQFWo-uC-33" style="edgeStyle=orthogonalEdgeStyle;rounded=0;orthogonalLoop=1;jettySize=auto;html=1;entryX=0;entryY=0.5;entryDx=0;entryDy=0;entryPerimeter=0;exitX=0.5;exitY=0;exitDx=0;exitDy=0;strokeWidth=2;fontStyle=0;fontSize=22;" parent="1" source="4X8OJqOi4j79PQFWo-uC-6" target="4X8OJqOi4j79PQFWo-uC-5" edge="1">
          <mxGeometry relative="1" as="geometry">
            <mxPoint x="652" y="460" as="sourcePoint" />
          </mxGeometry>
        </mxCell>
        <mxCell id="4X8OJqOi4j79PQFWo-uC-34" value="" style="edgeStyle=elbowEdgeStyle;elbow=horizontal;endArrow=classic;html=1;curved=0;rounded=0;endSize=8;startSize=8;entryX=0.001;entryY=0.664;entryDx=0;entryDy=0;entryPerimeter=0;strokeWidth=2;fontStyle=0" parent="1" target="kKCmZU7g9CsREEnNZsZf-8" edge="1">
          <mxGeometry width="50" height="50" relative="1" as="geometry">
            <mxPoint x="120" y="420" as="sourcePoint" />
            <mxPoint x="160" y="490" as="targetPoint" />
            <Array as="points">
              <mxPoint x="185" y="450" />
            </Array>
          </mxGeometry>
        </mxCell>
        <mxCell id="4X8OJqOi4j79PQFWo-uC-37" value="" style="edgeStyle=elbowEdgeStyle;elbow=horizontal;endArrow=classic;html=1;curved=0;rounded=0;endSize=8;startSize=8;entryX=0;entryY=0.5;entryDx=0;entryDy=0;exitX=1;exitY=0.25;exitDx=0;exitDy=0;strokeWidth=2;fontStyle=0" parent="1" source="4X8OJqOi4j79PQFWo-uC-6" target="4X8OJqOi4j79PQFWo-uC-8" edge="1">
          <mxGeometry width="50" height="50" relative="1" as="geometry">
            <mxPoint x="585" y="570" as="sourcePoint" />
            <mxPoint x="635" y="520" as="targetPoint" />
            <Array as="points">
              <mxPoint x="885" y="420" />
            </Array>
          </mxGeometry>
        </mxCell>
        <mxCell id="4X8OJqOi4j79PQFWo-uC-38" value="" style="edgeStyle=elbowEdgeStyle;elbow=horizontal;endArrow=classic;html=1;curved=0;rounded=0;endSize=8;startSize=8;entryX=0.07;entryY=0.4;entryDx=0;entryDy=0;entryPerimeter=0;exitX=1;exitY=0.75;exitDx=0;exitDy=0;strokeWidth=2;fontStyle=0" parent="1" source="4X8OJqOi4j79PQFWo-uC-6" target="bC7OHCeX101TMUWNberd-3" edge="1">
          <mxGeometry width="50" height="50" relative="1" as="geometry">
            <mxPoint x="585" y="570" as="sourcePoint" />
            <mxPoint x="635" y="520" as="targetPoint" />
          </mxGeometry>
        </mxCell>
        <mxCell id="4X8OJqOi4j79PQFWo-uC-43" value="" style="edgeStyle=elbowEdgeStyle;elbow=vertical;endArrow=classic;html=1;curved=0;rounded=0;endSize=8;startSize=8;entryX=0.5;entryY=0;entryDx=0;entryDy=0;exitX=1;exitY=0.5;exitDx=0;exitDy=0;exitPerimeter=0;dashed=1;fontStyle=0" parent="1" target="4X8OJqOi4j79PQFWo-uC-8" edge="1">
          <mxGeometry width="50" height="50" relative="1" as="geometry">
            <mxPoint x="895" y="264.5" as="sourcePoint" />
            <mxPoint x="745" y="227.5" as="targetPoint" />
            <Array as="points">
              <mxPoint x="955" y="279.5" />
            </Array>
          </mxGeometry>
        </mxCell>
        <mxCell id="62fsEb2viH9g0ObbdB80-1" value="Kubernetes" style="text;html=1;align=center;verticalAlign=middle;whiteSpace=wrap;rounded=0;fontSize=24;fontStyle=0" parent="1" vertex="1">
          <mxGeometry x="968.5" y="387" width="70" height="40" as="geometry" />
        </mxCell>
      </root>
    </mxGraphModel>
  </diagram>
</mxfile>
